<?xml version="1.0" encoding="UTF-8"?>
<svg width="206px" height="50px" viewBox="0 0 206 50" version="1.1" xmlns="http://www.w3.org/2000/svg" xmlns:xlink="http://www.w3.org/1999/xlink">
    <!-- Generator: Sketch 48.2 (47327) - http://www.bohemiancoding.com/sketch -->
    <title>logo-neh</title>
    <desc>Created with Sketch.</desc>
    <defs></defs>
    <g id="footer" stroke="none" stroke-width="1" fill="none" fill-rule="evenodd" transform="translate(-635.000000, -77.000000)">
        <g id="logo-neh" transform="translate(635.296875, 76.649127)" fill="#FFFFFE">
            <path d="M73.0910125,34.8137051 C72.5866203,34.8137051 70.8171535,34.8841235 70.4167513,34.8841235 L70.4167513,34.4149406 C71.1782525,34.2348005 71.6457978,33.5486306 71.6457978,32.9697259 L71.6457978,27.5450535 L63.0670367,27.5450535 L63.0670367,32.9697259 C63.0670367,33.5486306 63.5394949,34.2004101 64.33293,34.4149406 L64.33293,34.8841235 C63.9349843,34.8841235 62.1286707,34.8137051 61.6250973,34.8137051 C61.1894859,34.8137051 59.492894,34.8841235 59.0941294,34.8841235 L59.0941294,34.4149406 C59.8531741,34.2348005 60.3223571,33.5486306 60.3223571,32.9697259 L60.3223571,21.6479229 C60.3223571,21.1050462 59.8892022,20.4188763 59.0941294,20.2018894 L59.0941294,19.7335253 C59.492894,19.7335253 61.1894859,19.8055813 61.6250973,19.8055813 C62.1286707,19.8055813 63.9349843,19.7335253 64.33293,19.7335253 L64.33293,20.2018894 C63.5738853,20.384486 63.0670367,21.069837 63.0670367,21.6479229 L63.0670367,26.0982013 L71.6457978,26.0982013 L71.6457978,21.6479229 C71.6457978,21.069837 71.2134617,20.384486 70.4167513,20.2018894 L70.4167513,19.7335253 C70.8171535,19.7335253 72.5866203,19.8055813 73.0910125,19.8055813 C73.5258051,19.8055813 75.2592438,19.7335253 75.6571896,19.7335253 L75.6571896,20.2018894 C74.8989636,20.384486 74.3912962,21.069837 74.3912962,21.6479229 L74.3912962,32.9697259 C74.3912962,33.5134214 74.8621168,34.2004101 75.6571896,34.4149406 L75.6571896,34.8841235 C75.2592438,34.8841235 73.5258051,34.8137051 73.0910125,34.8137051" id="Fill-1"></path>
            <path d="M91.6577214,34.4869966 C91.0779979,34.8841235 90.3214096,35.4982374 90.3214096,35.4982374 C89.8137422,35.0282356 88.8409858,34.0530228 88.6575705,32.7175298 C87.392496,33.9834232 85.6246669,35.1363196 83.3827419,35.1363196 C80.278601,35.1363196 78.9414705,33.1515036 78.9414705,30.7310762 L78.9414705,23.5795157 C78.9414705,22.423344 78.2921474,21.8829238 77.0991289,21.6266336 L77.0991289,21.2286878 L81.289023,19.5689428 L81.6845124,19.5689428 L81.6845124,28.7061381 C81.6845124,31.2723152 82.2282078,33.2964345 84.7943849,33.2964345 C86.4197396,33.2964345 87.8281074,32.2115 88.5511241,31.3075244 L88.5511241,23.5795157 C88.5511241,22.423344 87.9026199,21.8829238 86.7087825,21.6266336 L86.7087825,21.2286878 L90.8978578,19.5689428 L91.2958036,19.5689428 L91.2958036,31.7071078 C91.2958036,32.8608231 91.6577214,33.1515036 92.0876011,33.1515036 C92.3438913,33.1515036 92.7410182,33.1122004 92.9211583,33.0073916 L93.174992,33.5838398 C93.174992,33.5838398 92.4167661,33.9834232 91.6577214,34.4869966" id="Fill-2"></path>
            <path d="M115.708058,34.8137051 C115.238875,34.8137051 113.214755,34.8841235 112.780782,34.8841235 L112.780782,34.4517874 C113.539008,34.1258976 114.370927,33.7279518 114.370927,33.0442384 L114.370927,25.9991243 C114.370927,23.4354036 114.226815,21.4088279 111.661457,21.4088279 C110.217061,21.4088279 108.808693,22.2423851 107.975136,23.0734858 C108.011983,23.3608911 108.011983,23.6875997 108.011983,23.9758238 L108.011983,33.0442384 C108.011983,33.763161 108.771846,34.0906884 109.636519,34.4517874 L109.636519,34.8841235 C109.168155,34.8841235 107.071979,34.8137051 106.602796,34.8137051 C106.134432,34.8137051 104.109494,34.8841235 103.677158,34.8841235 L103.677158,34.4517874 C104.434565,34.1258976 105.266484,33.7279518 105.266484,33.0442384 L105.266484,25.9991243 C105.266484,23.4354036 105.122372,21.4088279 102.555376,21.4088279 C100.931659,21.4088279 99.6674037,22.4945812 98.9452058,23.3961003 L98.9452058,33.0442384 C98.9452058,33.763161 99.7026129,34.0906884 100.570561,34.4517874 L100.570561,34.8841235 C100.09974,34.8841235 98.0043834,34.8137051 97.5368381,34.8137051 C97.0660174,34.8137051 95.0418982,34.8841235 94.609562,34.8841235 L94.609562,34.4517874 C95.3677879,34.1258976 96.1997075,33.7279518 96.1997075,33.0442384 L96.1997075,23.5795157 C96.1997075,22.4241628 95.5487468,21.8829238 94.3557283,21.6274524 L94.3557283,21.2295066 L98.4015104,19.5681239 L98.7978185,19.5681239 L98.9452058,21.918133 C100.246308,20.6899053 101.727551,19.5681239 103.965382,19.5681239 C106.097585,19.5681239 107.218548,20.5425179 107.687731,21.918133 C108.988014,20.6899053 110.864746,19.5681239 113.069006,19.5681239 C116.176422,19.5681239 117.116425,21.5562152 117.116425,23.9758238 L117.116425,33.0442384 C117.116425,33.763161 117.873833,34.0906884 118.74178,34.4517874 L118.74178,34.8841235 C118.27096,34.8841235 116.176422,34.8137051 115.708058,34.8137051" id="Fill-3"></path>
            <path d="M129.183353,27.2985892 L127.054425,27.2985892 C124.921403,27.2985892 123.043852,28.4547609 123.043852,30.7662854 C123.043852,32.4284869 124.164815,33.4012433 125.535517,33.4012433 C126.980732,33.4012433 128.426765,32.6102646 129.183353,31.3795805 L129.183353,27.2985892 Z M132.291588,34.4869966 C131.714321,34.8841235 130.955277,35.4982374 130.955277,35.4982374 C130.450884,35.0282356 129.835133,34.2348005 129.475672,33.221922 C128.426765,34.3780937 126.728536,35.1363196 124.815776,35.1363196 C122.067821,35.1363196 120.118214,33.8360359 120.118214,30.9112163 C120.118214,28.1657179 122.718781,26.7573502 125.356196,26.2873484 C126.079212,26.1784455 128.389918,26.1424175 129.183353,26.1424175 L129.183353,23.7932273 C129.183353,22.1695102 128.17375,20.8323797 125.97031,20.8323797 C124.200024,20.8323797 123.007006,21.6986896 122.139877,23.2184167 L121.671513,23.2184167 L121.671513,20.2903218 C123.043852,19.8940137 124.633179,19.5689428 126.766201,19.5689428 C131.064998,19.5689428 131.930489,21.7715645 131.930489,24.1936295 L131.930489,31.7071078 C131.930489,32.8608231 132.291588,33.1515036 132.723924,33.1515036 C132.977758,33.1515036 133.373247,33.1122004 133.5583,33.0073916 L133.809678,33.5838398 C133.809678,33.5838398 133.049814,33.9834232 132.291588,34.4869966 Z" id="Fill-4"></path>
            <path d="M147.79346,34.8137051 C147.323458,34.8137051 145.29852,34.8841235 144.867002,34.8841235 L144.867002,34.4517874 C145.625228,34.1258976 146.456329,33.7279518 146.456329,33.0442384 L146.456329,25.9991243 C146.456329,23.4354036 145.442632,21.4088279 142.880549,21.4088279 C141.252738,21.4088279 139.843551,22.4945812 139.122172,23.3961003 L139.122172,33.0442384 C139.122172,33.763161 139.880398,34.0906884 140.749164,34.4517874 L140.749164,34.8841235 C140.278344,34.8841235 138.183806,34.8137051 137.711348,34.8137051 C137.242984,34.8137051 135.220502,34.8841235 134.786528,34.8841235 L134.786528,34.4517874 C135.546392,34.1258976 136.378311,33.7279518 136.378311,33.0442384 L136.378311,23.5795157 C136.378311,22.4241628 135.727351,21.8829238 134.53597,21.6274524 L134.53597,21.2295066 L138.580114,19.5681239 L138.975603,19.5681239 L139.122172,21.918133 C140.424093,20.6899053 142.046173,19.5681239 144.288098,19.5681239 C147.393876,19.5681239 149.199371,21.5562152 149.199371,23.9758238 L149.199371,33.0442384 C149.199371,33.763161 149.960872,34.0906884 150.827182,34.4517874 L150.827182,34.8841235 C150.35718,34.8841235 148.260186,34.8137051 147.79346,34.8137051" id="Fill-5"></path>
            <path d="M155.452688,34.8137051 C154.983505,34.8137051 152.959385,34.8841235 152.527049,34.8841235 L152.527049,34.4517874 C153.285275,34.1258976 154.115557,33.7279518 154.115557,33.0442384 L154.115557,23.5795157 C154.115557,22.4241628 153.466234,21.8829238 152.273216,21.6274524 L152.273216,21.2295066 L156.464747,19.5681239 L156.861055,19.5681239 L156.861055,33.0442384 C156.861055,33.763161 157.618463,34.0906884 158.48641,34.4517874 L158.48641,34.8841235 C158.017227,34.8841235 155.922689,34.8137051 155.452688,34.8137051" id="Fill-6"></path>
            <path d="M165.532343,35.1363196 C163.798904,35.1363196 162.103131,34.3068565 162.103131,30.9112163 L162.103131,21.1934786 L159.862844,21.1934786 L159.862844,20.3271687 L161.812451,19.7466264 C162.858901,18.8107169 163.366568,17.3630458 163.653155,15.6680915 L164.844536,15.6680915 L164.844536,19.8211389 L169.289082,19.8211389 L169.289082,21.1934786 L164.844536,21.1934786 L164.844536,30.4420333 C164.844536,32.3556121 165.460287,33.0073916 166.58125,33.0073916 C167.662909,33.0073916 168.350716,32.4636961 168.820718,31.9568475 L169.399623,32.4989053 C169.002496,33.2571312 167.590853,35.1363196 165.532343,35.1363196" id="Fill-7"></path>
            <path d="M174.205268,34.8137051 C173.735267,34.8137051 171.710329,34.8841235 171.278811,34.8841235 L171.278811,34.4517874 C172.038675,34.1258976 172.869775,33.7279518 172.869775,33.0442384 L172.869775,23.5795157 C172.869775,22.4241628 172.218815,21.8829238 171.025796,21.6274524 L171.025796,21.2295066 L175.214053,19.5681239 L175.613636,19.5681239 L175.613636,33.0442384 C175.613636,33.763161 176.372681,34.0906884 177.23981,34.4517874 L177.23981,34.8841235 C176.769808,34.8841235 174.671995,34.8137051 174.205268,34.8137051" id="Fill-8"></path>
            <path d="M186.163293,20.8675889 C183.778894,20.8675889 182.372164,23.072667 182.047093,24.9141898 L189.342766,24.9141898 C189.595781,23.1103327 188.441246,20.8675889 186.163293,20.8675889 M192.16032,26.1424175 L181.901343,26.1424175 C181.431341,30.294646 183.743685,33.4012433 187.174534,33.4012433 C189.127416,33.4012433 190.461272,33.07781 191.366066,32.139444 L191.98018,32.8256139 C191.184288,33.7639799 189.559752,35.1363196 186.708627,35.1363196 C181.6123,35.1363196 178.904468,32.03136 178.904468,27.3337984 C178.904468,22.5658184 182.190386,19.5689428 186.128084,19.5689428 C189.956061,19.5689428 192.451001,22.2784131 192.269223,25.3841916 C192.269223,25.6388441 192.232376,25.9630962 192.16032,26.1424175" id="Fill-9"></path>
            <path d="M199.497752,35.1363196 C198.012416,35.1363196 196.172531,34.778496 194.944303,34.4149406 L194.944303,31.2362872 L195.414305,31.2362872 C196.425545,33.0442384 197.580079,33.8360359 199.459268,33.8360359 C201.518596,33.8360359 202.640378,33.07781 202.640378,31.7414982 C202.640378,30.8760071 202.206404,30.294646 201.44654,29.9360035 L196.967603,27.7342006 C195.522389,27.0087274 194.618413,25.8902214 194.618413,24.1207547 C194.618413,21.1566318 197.293493,19.5689428 200.147075,19.5689428 C201.627499,19.5689428 203.469841,19.9300417 204.696431,20.2903218 L204.696431,23.3608911 L204.228067,23.3608911 C203.436269,21.9525233 202.099139,20.8675889 200.218313,20.8675889 C198.448027,20.8675889 197.328702,21.8100489 197.328702,23.1455419 C197.328702,24.3033512 197.763495,24.8781618 198.954057,25.4562476 L203.50505,27.6613258 C204.30176,28.0576339 205.275336,29.0320279 205.275336,30.695867 C205.275336,33.5486306 203.038323,35.1363196 199.497752,35.1363196" id="Fill-10"></path>
            <polyline id="Fill-11" points="60.0423212 10.9009304 61.2050435 10.9009304 62.8557815 13.5997561 62.867245 13.5997561 62.867245 10.9009304 63.7229103 10.9009304 63.7229103 14.7845864 62.6035854 14.7845864 60.9086312 12.0202552 60.8979865 12.0202552 60.8979865 14.7845864 60.0423212 14.7845864 60.0423212 10.9009304"></polyline>
            <path d="M66.2849933,12.0308999 L65.8141727,13.2378383 L66.7623644,13.2378383 L66.2849933,12.0308999 Z M65.9558282,10.9009304 L66.6641062,10.9009304 L68.3533287,14.7845864 L67.3879418,14.7845864 L67.053045,13.9616738 L65.5447814,13.9616738 L65.2213481,14.7845864 L64.2780692,14.7845864 L65.9558282,10.9009304 Z" id="Fill-12"></path>
            <polyline id="Fill-13" points="69.1598649 11.6583375 68.0520035 11.6583375 68.0520035 10.9009304 71.1233917 10.9009304 71.1233917 11.6583375 70.0155303 11.6583375 70.0155303 14.7845864 69.1598649 14.7845864 69.1598649 11.6583375"></polyline>
            <polygon id="Fill-14" points="71.7113033 14.7845864 72.5669686 14.7845864 72.5669686 10.9009304 71.7113033 10.9009304"></polygon>
            <path d="M75.3976241,14.0935036 C76.1271914,14.0935036 76.6037437,13.5670033 76.6037437,12.8431678 C76.6037437,12.1193323 76.1271914,11.592832 75.3976241,11.592832 C74.667238,11.592832 74.1906857,12.1193323 74.1906857,12.8431678 C74.1906857,13.5670033 74.667238,14.0935036 75.3976241,14.0935036 Z M75.3976241,10.8026722 C76.6094754,10.8026722 77.4929806,11.5977449 77.4929806,12.8431678 C77.4929806,14.0885907 76.6094754,14.8836634 75.3976241,14.8836634 C74.1849539,14.8836634 73.3014488,14.0885907 73.3014488,12.8431678 C73.3014488,11.5977449 74.1849539,10.8026722 75.3976241,10.8026722 Z" id="Fill-15"></path>
            <polyline id="Fill-16" points="78.239743 10.9009304 79.4024653 10.9009304 81.0532033 13.5997561 81.0646668 13.5997561 81.0646668 10.9009304 81.9195133 10.9009304 81.9195133 14.7845864 80.8010072 14.7845864 79.106053 12.0202552 79.0954083 12.0202552 79.0954083 14.7845864 78.239743 14.7845864 78.239743 10.9009304"></polyline>
            <path d="M84.4815963,12.0308999 L84.0107756,13.2378383 L84.9589674,13.2378383 L84.4815963,12.0308999 Z M84.1524312,10.9009304 L84.8607092,10.9009304 L86.5499317,14.7845864 L85.5845448,14.7845864 L85.249648,13.9616738 L83.7413844,13.9616738 L83.4179511,14.7845864 L82.4746722,14.7845864 L84.1524312,10.9009304 Z" id="Fill-17"></path>
            <polyline id="Fill-18" points="87.1378434 10.9009304 87.9935087 10.9009304 87.9935087 13.9952454 89.5787413 13.9952454 89.5787413 14.7845864 87.1378434 14.7845864 87.1378434 10.9009304"></polyline>
            <polyline id="Fill-19" points="91.5930347 10.9009304 94.2312679 10.9009304 94.2312679 11.6910902 92.4487 11.6910902 92.4487 12.4149257 94.1321908 12.4149257 94.1321908 13.2050856 92.4487 13.2050856 92.4487 13.9952454 94.3303449 13.9952454 94.3303449 14.7845864 91.5930347 14.7845864 91.5930347 10.9009304"></polyline>
            <polyline id="Fill-20" points="95.1810973 10.9009304 96.3438195 10.9009304 97.9945576 13.5997561 98.0052022 13.5997561 98.0052022 10.9009304 98.8608675 10.9009304 98.8608675 14.7845864 97.7423615 14.7845864 96.0474072 12.0202552 96.0367626 12.0202552 96.0367626 14.7845864 95.1810973 14.7845864 95.1810973 10.9009304"></polyline>
            <path d="M100.672094,13.9952454 L101.116712,13.9952454 C101.911785,13.9952454 102.509523,13.6931014 102.509523,12.8104151 C102.509523,12.0472762 101.901141,11.6910902 101.176486,11.6910902 L100.672094,11.6910902 L100.672094,13.9952454 Z M99.8164287,10.9009304 L101.100336,10.9009304 C102.350672,10.9009304 103.397941,11.4331624 103.397941,12.8538124 C103.397941,14.10988 102.37278,14.7845864 101.214971,14.7845864 L99.8164287,14.7845864 L99.8164287,10.9009304 Z" id="Fill-21"></path>
            <path d="M106.03208,14.0935036 C106.761647,14.0935036 107.239018,13.5670033 107.239018,12.8431678 C107.239018,12.1193323 106.761647,11.592832 106.03208,11.592832 C105.302512,11.592832 104.825141,12.1193323 104.825141,12.8431678 C104.825141,13.5670033 105.302512,14.0935036 106.03208,14.0935036 Z M106.03208,10.8026722 C107.243931,10.8026722 108.127436,11.5977449 108.127436,12.8431678 C108.127436,14.0885907 107.243931,14.8836634 106.03208,14.8836634 C104.820228,14.8836634 103.936723,14.0885907 103.936723,12.8431678 C103.936723,11.5977449 104.820228,10.8026722 106.03208,10.8026722 Z" id="Fill-22"></path>
            <polyline id="Fill-23" points="108.468065 10.9009304 109.39988 10.9009304 110.019726 13.3909574 110.031189 13.3909574 110.842638 10.9009304 111.63853 10.9009304 112.444247 13.4572817 112.455711 13.4572817 113.108309 10.9009304 113.974619 10.9009304 112.839737 14.7845864 112.077417 14.7845864 111.221751 12.0972242 111.210288 12.0972242 110.354622 14.7845864 109.620142 14.7845864 108.468065 10.9009304"></polyline>
            <polyline id="Fill-24" points="114.519133 10.9009304 115.813685 10.9009304 116.707835 13.4351736 116.71848 13.4351736 117.618361 10.9009304 118.907181 10.9009304 118.907181 14.7845864 118.051516 14.7845864 118.051516 11.8065436 118.040872 11.8065436 117.020624 14.7845864 116.367207 14.7845864 115.386262 11.8065436 115.374799 11.8065436 115.374799 14.7845864 114.519133 14.7845864 114.519133 10.9009304"></polyline>
            <polyline id="Fill-25" points="119.895495 10.9009304 122.53291 10.9009304 122.53291 11.6910902 120.751161 11.6910902 120.751161 12.4149257 122.434651 12.4149257 122.434651 13.2050856 120.751161 13.2050856 120.751161 13.9952454 122.632806 13.9952454 122.632806 14.7845864 119.895495 14.7845864 119.895495 10.9009304"></polyline>
            <polyline id="Fill-26" points="123.483558 10.9009304 124.64628 10.9009304 126.297018 13.5997561 126.307663 13.5997561 126.307663 10.9009304 127.164147 10.9009304 127.164147 14.7845864 126.044822 14.7845864 124.349868 12.0202552 124.339223 12.0202552 124.339223 14.7845864 123.483558 14.7845864 123.483558 10.9009304"></polyline>
            <polyline id="Fill-27" points="128.870565 11.6583375 127.761884 11.6583375 127.761884 10.9009304 130.833273 10.9009304 130.833273 11.6583375 129.72623 11.6583375 129.72623 14.7845864 128.870565 14.7845864 128.870565 11.6583375"></polyline>
            <polyline id="Fill-28" points="132.820545 10.9009304 135.426025 10.9009304 135.426025 11.6910902 133.67621 11.6910902 133.67621 12.48125 135.294196 12.48125 135.294196 13.2714099 133.67621 13.2714099 133.67621 14.7845864 132.820545 14.7845864 132.820545 10.9009304"></polyline>
            <path d="M138.092098,14.0935036 C138.821666,14.0935036 139.299037,13.5670033 139.299037,12.8431678 C139.299037,12.1193323 138.821666,11.592832 138.092098,11.592832 C137.362531,11.592832 136.88516,12.1193323 136.88516,12.8431678 C136.88516,13.5670033 137.362531,14.0935036 138.092098,14.0935036 Z M138.092098,10.8026722 C139.30395,10.8026722 140.187455,11.5977449 140.187455,12.8431678 C140.187455,14.0885907 139.30395,14.8836634 138.092098,14.8836634 C136.880247,14.8836634 135.996742,14.0885907 135.996742,12.8431678 C135.996742,11.5977449 136.880247,10.8026722 138.092098,10.8026722 Z" id="Fill-29"></path>
            <path d="M141.789883,12.508271 L142.294275,12.508271 C142.607063,12.508271 143.013197,12.4976264 143.013197,12.0751161 C143.013197,11.6861773 142.661924,11.6255847 142.349954,11.6255847 L141.789883,11.6255847 L141.789883,12.508271 Z M140.934217,10.9009304 L142.436749,10.9009304 C143.232641,10.9009304 143.901615,11.1752346 143.901615,12.0808478 C143.901615,12.6237244 143.610935,13.0462348 143.062327,13.144493 L144.049822,14.7845864 L143.023842,14.7845864 L142.212393,13.2329254 L141.789883,13.2329254 L141.789883,14.7845864 L140.934217,14.7845864 L140.934217,10.9009304 Z" id="Fill-30"></path>
            <polyline id="Fill-31" points="146.756017 11.6583375 145.647336 11.6583375 145.647336 10.9009304 148.718725 10.9009304 148.718725 11.6583375 147.610863 11.6583375 147.610863 14.7845864 146.756017 14.7845864 146.756017 11.6583375"></polyline>
            <polyline id="Fill-32" points="149.317281 10.9009304 150.172946 10.9009304 150.172946 12.3494203 151.835148 12.3494203 151.835148 10.9009304 152.690813 10.9009304 152.690813 14.7845864 151.835148 14.7845864 151.835148 13.1060085 150.172946 13.1060085 150.172946 14.7845864 149.317281 14.7845864 149.317281 10.9009304"></polyline>
            <polyline id="Fill-33" points="153.679127 10.9009304 156.316541 10.9009304 156.316541 11.6910902 154.534792 11.6910902 154.534792 12.4149257 156.218283 12.4149257 156.218283 13.2050856 154.534792 13.2050856 154.534792 13.9952454 156.415618 13.9952454 156.415618 14.7845864 153.679127 14.7845864 153.679127 10.9009304"></polyline>
            <path d="M28.0388011,25.3276931 C28.0388011,26.7950158 26.8547896,27.9814838 25.3817351,27.9814838 C23.9226006,27.9814838 22.7304009,26.7950158 22.7304009,25.3268743 C22.7304009,23.8611892 23.9226006,22.6722648 25.3817351,22.6730836 C26.8556084,22.671446 28.0388011,23.862008 28.0388011,25.3276931" id="Fill-34"></path>
            <path d="M23.7760321,2.05523437 C23.6990632,0.731204899 24.2206505,0.488015812 25.3899233,0.491291086 C26.5510079,0.493747541 27.0742329,0.734480173 26.9923511,2.06014729 L25.8853085,18.2547391 C25.8402735,18.6191133 25.679785,19.4182802 25.3588082,19.4182802 C25.0345561,19.4182802 24.8773429,18.6125628 24.8339456,18.2547391 L23.7760321,2.05523437" id="Fill-35"></path>
            <path d="M40.7018288,7.73455933 C41.5853339,6.74297015 42.1241165,6.94112422 42.9494855,7.76813088 C43.7691228,8.59186227 43.9689145,9.13228246 42.9732313,10.0116935 L30.7392644,20.6808983 C30.4494027,20.9060733 29.7697833,21.3588799 29.5437894,21.1312484 C29.3137014,20.9011604 29.7730586,20.2199034 29.9957772,19.9365923 L40.7018288,7.73455933" id="Fill-36"></path>
            <path d="M48.6550127,23.7170772 C49.9806798,23.6425647 50.2222312,24.1616956 50.2197748,25.3317872 C50.2181371,26.492053 49.9757669,27.0160968 48.6509186,26.9350338 L32.4555079,25.8271724 C32.0919525,25.7813185 31.2911481,25.6224678 31.2911481,25.3006721 C31.2911481,24.9756012 32.0985031,24.8200256 32.4563268,24.7758094 L48.6550127,23.7170772" id="Fill-37"></path>
            <path d="M42.9765065,40.6428739 C43.9672769,41.5255602 43.7699416,42.0643428 42.9421162,42.8897118 C42.1192036,43.7101679 41.5779646,43.9099596 40.6985535,42.9150952 L30.0309864,30.6794907 C29.8058113,30.3904477 29.3521859,29.7116472 29.5798174,29.4848345 C29.8090866,29.2547465 30.4911624,29.7149225 30.7752924,29.9376411 L42.9765065,40.6428739" id="Fill-38"></path>
            <path d="M26.9931699,48.5960577 C27.06932,49.9217249 26.5485515,50.1632763 25.3800975,50.1616387 C24.2181941,50.1583634 23.6957879,49.9168119 23.7760321,48.5927825 L24.8847123,32.396553 C24.9289285,32.0338164 25.0885981,31.233012 25.409575,31.233012 C25.7354647,31.233012 25.8910402,32.040367 25.9344376,32.3981906 L26.9931699,48.5960577" id="Fill-39"></path>
            <path d="M10.0673732,42.9183704 C9.18386803,43.908322 8.64590429,43.7118055 7.82053527,42.8847989 C7.00007915,42.0610675 6.80192508,41.5190096 7.79597071,40.6412362 L20.0307564,29.9720315 C20.3189805,29.7468564 20.9994186,29.2940498 21.2254125,29.5216813 C21.4563193,29.7501317 20.9953245,30.4313887 20.7734247,30.7163375 L10.0673732,42.9183704" id="Fill-40"></path>
            <path d="M2.11418931,26.9350338 C0.789341011,27.0111839 0.546970742,26.4904153 0.549427197,25.3227802 C0.551064834,24.160058 0.793435103,23.6360141 2.1182834,23.7187148 L18.3128752,24.8265762 C18.6764306,24.8707924 19.4772351,25.0312808 19.4772351,25.3514388 C19.4780539,25.675691 18.6698801,25.8329041 18.3128752,25.8771203 L2.11418931,26.9350338" id="Fill-41"></path>
            <path d="M7.79269544,10.0084182 C6.80192508,9.12736955 6.99844152,8.58694936 7.82626699,7.76321797 C8.64917956,6.94276186 9.19123739,6.74297015 10.0698296,7.7378346 L20.7373967,19.9734391 C20.9633906,20.2608444 21.4161972,20.9412825 21.1893845,21.1664576 C20.9601154,21.3981832 20.2788584,20.9363696 19.9947284,20.7152886 L7.79269544,10.0084182" id="Fill-42"></path>
            <path d="M28.3032794,17.8723509 C28.1485228,18.3718301 28.1002125,18.9073374 27.9438181,19.3994473 C27.7972496,19.8628986 27.7063608,20.0037354 27.2510977,19.8596233 C26.5223493,19.6262601 27.3526312,17.0215985 27.475454,16.6383914 C28.5390992,13.3098943 33.2464866,10.0460839 34.1799396,7.13272775 C34.7039835,5.48526497 33.8949908,3.66748795 32.1689215,3.11969839 C30.6770342,2.6415084 30.0498193,3.54057109 29.5175872,3.36861921 C29.3636494,3.32194656 29.2981439,3.13034303 29.3497295,2.97476752 C29.5789986,2.24847554 31.1781511,1.19875025 34.0939637,2.1272904 C36.465262,2.88715395 37.8449711,5.43695468 37.0842888,7.81070944 C35.8012002,11.8302893 29.9769444,12.6253621 28.3032794,17.8723509" id="Fill-43"></path>
            <path d="M32.7199863,22.1195623 C32.2557162,22.3635702 31.8454882,22.707474 31.3844934,22.9449313 C30.9546137,23.1692876 30.7900312,23.2053156 30.5705878,22.7803488 C30.2209523,22.0999107 32.6495679,20.8446619 33.005754,20.6628842 C36.1131701,19.0612753 41.7482788,20.0815231 44.4700314,18.6805247 C46.0036784,17.8870896 46.718507,16.0291905 45.8849498,14.4218498 C45.1676648,13.0290396 44.0892808,13.2190055 43.8329907,12.7228015 C43.7584782,12.5811459 43.8460918,12.3977305 43.9942979,12.3240369 C44.6698231,11.9727638 46.5432798,12.3608837 47.9483723,15.0818175 C49.08653,17.2959027 48.2603422,20.0733349 46.0429817,21.2131303 C42.2936119,23.1488171 37.6132455,19.5926885 32.7199863,22.1195623" id="Fill-44"></path>
            <path d="M32.838715,28.2459622 C32.3375981,28.0903866 31.8053661,28.0420764 31.3107997,27.8848632 C30.8473484,27.7399323 30.7073305,27.6498623 30.8522614,27.1937804 C31.0856246,26.4633943 33.6894674,27.2961327 34.0710368,27.4173179 C37.4003527,28.4809631 40.664982,33.1883505 43.5791569,34.1226224 C45.2241633,34.647485 47.0443967,33.8360359 47.5921863,32.1107854 C48.0703763,30.6197169 47.1713136,29.9916831 47.3416278,29.46027 C47.3899381,29.3071509 47.5815416,29.2400078 47.737936,29.2915933 C48.4625903,29.5216813 49.5139532,31.120015 48.5837755,34.0366464 C47.8230931,36.4095824 45.2741112,37.7860162 42.9003564,37.024515 C38.8799577,35.7414265 38.0857038,29.9196271 32.838715,28.2459622" id="Fill-45"></path>
            <path d="M28.5906847,32.6602126 C28.3474956,32.1967613 28.0044107,31.7857144 27.7661345,31.3255384 C27.5401406,30.8956587 27.5057502,30.731895 27.9298982,30.5132705 C28.6111552,30.1619974 29.8647663,32.5897942 30.0481816,32.9476178 C31.6489717,36.0542151 30.6303616,41.6917803 32.0305411,44.4102577 C32.8231574,45.9455423 34.6818754,46.6603709 36.2900349,45.8259948 C37.6820263,45.1103475 37.4904227,44.0303259 37.9890832,43.7732169 C38.12992,43.7003421 38.3133353,43.7887745 38.3862102,43.9345242 C38.7383021,44.6108682 38.3493633,46.4843249 35.6292484,47.8894174 C33.4151632,49.0283939 30.6385497,48.1997496 29.496298,45.9840268 C27.5630675,42.234657 31.1167397,37.5542906 28.5906847,32.6602126" id="Fill-46"></path>
            <path d="M22.4642849,32.7822165 C22.6198604,32.2802808 22.6689895,31.7464111 22.8262027,31.2518448 C22.9711335,30.7892123 23.0620224,30.6491944 23.5164666,30.7933064 C24.2468527,31.0274885 23.4165708,33.6313313 23.293748,34.0129007 C22.2276464,37.3438542 17.5218966,40.6068459 16.5876247,43.520202 C16.0652185,45.1676648 16.8733923,46.9887171 18.5994617,47.5332314 C20.0905301,48.0114213 20.7177451,47.1148151 21.2516147,47.2810353 C21.403915,47.3309832 21.4702393,47.5209491 21.4202913,47.6797999 C21.1902033,48.4044542 19.5894132,49.4558171 16.6744194,48.5240017 C14.3023023,47.7641382 12.9250496,45.2143374 13.6849132,42.8422203 C14.9680017,38.8226404 20.7906199,38.0267488 22.4642849,32.7822165" id="Fill-47"></path>
            <path d="M18.047578,28.5333674 C18.5118481,28.2893595 18.9245326,27.9454558 19.3847086,27.709636 C19.8145883,27.4820045 19.978352,27.448433 20.1961577,27.8717621 C20.5482497,28.5530191 18.1204529,29.8066302 17.763448,29.9908643 C14.6552131,31.5916544 9.02174197,30.5730443 6.29835172,31.972405 C4.76552353,32.7642025 4.04987618,34.6237393 4.88425221,36.2318987 C5.60071838,37.6230713 6.67828349,37.4322866 6.93621131,37.9284906 C7.00990497,38.0717839 6.92147258,38.2551992 6.77490407,38.3288929 C6.10019765,38.6777095 4.22428452,38.292046 2.82164847,35.5702934 C1.68349079,33.3553894 2.50967863,30.5804136 4.72622024,29.4381619 C8.47559005,27.5041126 13.1551376,31.0586036 18.047578,28.5333674" id="Fill-48"></path>
            <path d="M17.9296682,22.4069676 C18.4299663,22.5625431 18.9646547,22.612491 19.4575834,22.7680665 C19.9210347,22.9121786 20.0618715,23.0047051 19.9161218,23.4583305 C19.6827585,24.1895354 17.0789158,23.3584347 16.6965275,23.2372495 C13.3672116,22.1703291 10.10422,17.4645793 7.18922622,16.5303074 C5.54503872,16.0070824 3.72398643,16.8152562 3.17619687,18.5421444 C2.6988257,20.0332128 3.59625075,20.6612466 3.42757414,21.1951163 C3.37926385,21.3474165 3.18766033,21.412922 3.03208482,21.3621552 C2.30661165,21.1320672 1.25442991,19.5312771 2.18624533,16.617921 C2.94774651,14.2441662 5.49509079,12.8685512 7.86802674,13.6267771 C11.8884255,14.9115033 12.6826794,20.7333026 17.9296682,22.4069676" id="Fill-49"></path>
            <path d="M22.1776984,17.9902607 C22.4208875,18.4545308 22.7631536,18.8680341 23.0022486,19.3273913 C23.2274237,19.7556334 23.2634517,19.9210347 22.8393038,20.1396592 C22.157228,20.4909324 20.9027981,18.0614979 20.7210204,17.7036743 C19.1185926,14.597077 20.1396592,8.96278704 18.737842,6.24021561 C17.9460445,4.7065686 16.0865078,3.99174007 14.4783483,4.82693492 C13.0855381,5.54258226 13.2763228,6.6209662 12.7809376,6.87971284 C12.639282,6.95258768 12.4558667,6.86415529 12.3838106,6.71758678 C12.0317187,6.04124272 12.4206575,4.16778604 15.1391348,2.76433118 C17.3540388,1.62535468 20.1306522,2.45154252 21.2720852,4.66726531 C23.2061344,8.41827275 19.6524622,13.0978203 22.1776984,17.9902607" id="Fill-50"></path>
        </g>
    </g>
</svg>