<?xml version="1.0" encoding="UTF-8"?>
<svg width="158px" height="53px" viewBox="0 0 158 53" version="1.1" xmlns="http://www.w3.org/2000/svg" xmlns:xlink="http://www.w3.org/1999/xlink">
    <!-- Generator: Sketch 48.2 (47327) - http://www.bohemiancoding.com/sketch -->
    <title>logo-hutchins</title>
    <desc>Created with Sketch.</desc>
    <defs>
        <polygon id="path-1" points="6.905 6.84487429 6.905 0.383921905 0.0067 0.383921905 0.0067 6.84487429 6.905 6.84487429"></polygon>
        <polygon id="path-3" points="40.6455 52.4952381 0 52.4952381 0 26.3826933 0 0.270148571 40.6455 0.270148571"></polygon>
    </defs>
    <g id="footer" stroke="none" stroke-width="1" fill="none" fill-rule="evenodd" transform="translate(-185.000000, -79.000000)">
        <g id="logo-hutchins" transform="translate(185.546875, 78.639922)">
            <path d="M60.854,10.4310057 L60.854,10.2982533 C61.497,10.2457581 62.0085,10.0337581 62.153,9.80913905 C62.2315,9.68951048 62.2445,9.13376762 62.2575,8.70976762 C62.2835,7.55840571 62.2705,6.08803429 62.2705,5.71753905 L57.746,5.71753905 L57.746,8.56439619 C57.746,9.05401524 57.746,9.62338667 57.877,9.80913905 C58.087,10.1003867 58.5725,10.2725105 58.9395,10.2982533 L58.9395,10.4310057 L54.441,10.4310057 L54.441,10.2982533 C54.874,10.2321295 55.372,10.0605105 55.582,9.80913905 C55.726,9.63651048 55.7525,8.93489143 55.7655,8.36552 C55.779,7.87590095 55.792,6.61803429 55.792,5.62516762 L55.792,3.04280571 C55.792,2.43406286 55.792,1.73244381 55.595,1.49419619 C55.346,1.20294857 54.9395,1.08332 54.4805,1.03082476 L54.4805,0.898072381 L59.018,0.898072381 L59.018,1.03082476 C58.5195,1.09694857 57.7985,1.26907238 57.772,2.09032 C57.733,3.32143429 57.746,5.10879619 57.746,5.45304381 L62.2705,5.45304381 C62.2705,4.31430095 62.2835,3.69192952 62.2575,2.54006286 C62.2445,2.20893905 62.2445,1.79856762 62.1,1.57344381 C61.785,1.09694857 61.3005,1.04394857 60.9065,1.03082476 L60.9065,0.898072381 L65.484,0.898072381 L65.484,1.03082476 C65.064,1.08332 64.5525,1.25544381 64.369,1.61332 C64.238,1.86469143 64.238,2.52693905 64.238,3.0695581 L64.238,5.33341524 C64.238,6.61803429 64.238,7.34640571 64.251,8.63052 C64.251,9.13376762 64.264,9.62338667 64.369,9.78238667 C64.592,10.1261295 65.051,10.2457581 65.51,10.2982533 L65.51,10.4310057 L60.854,10.4310057 Z" id="Fill-1" fill="#FFFFFF"></path>
            <path d="M70.45655,10.497079 L70.36455,10.497079 L70.36455,9.13371714 L70.35155,9.10696476 C69.97155,9.71621238 69.22405,10.5238314 68.25355,10.5238314 C67.13855,10.5238314 66.61405,9.80908857 66.61405,8.52446952 L66.61405,5.32024095 C66.61405,5.17486952 66.60105,4.7776219 66.54855,4.6716219 C66.41755,4.36674571 65.99755,4.2874981 65.68305,4.26125048 L65.68305,4.11537429 L68.24005,4.11537429 L68.24005,7.78297429 C68.24005,8.93484095 68.43705,9.49108857 69.22405,9.49108857 C69.86655,9.49108857 70.14205,9.22608857 70.36455,8.93484095 L70.36455,5.18799333 C70.36455,5.04211714 70.33905,4.68474571 70.23405,4.53937429 C70.02405,4.43337429 69.63055,4.30112667 69.25005,4.26125048 L69.25005,4.11537429 L71.97805,4.11537429 L71.97805,9.21296476 C71.97805,9.34571714 71.99105,9.41184095 72.10955,9.49108857 C72.26655,9.58346 72.63355,9.76921238 72.84355,9.86158381 L72.84355,9.94083143 L70.45655,10.497079 Z" id="Fill-3" fill="#FFFFFF"></path>
            <path d="M77.50485,4.9234981 L75.61635,4.9234981 L75.61635,8.2332219 C75.61635,9.13371714 75.94435,9.51784095 76.56035,9.51784095 C77.07235,9.51784095 77.49185,9.25284095 77.67535,8.98784095 L77.75435,9.02771714 C77.55735,9.57033619 76.90185,10.5238314 75.66885,10.5238314 C74.82935,10.5238314 73.99035,9.94083143 73.99035,9.37196476 C73.99035,7.71685048 74.04235,6.07486 74.04235,4.9234981 L73.05885,4.9234981 L73.05885,4.7776219 L75.48535,2.69901238 L75.59035,2.69901238 L75.59035,4.11537429 L77.91135,4.11537429 L77.50485,4.9234981 Z" id="Fill-5" fill="#FFFFFF"></path>
            <path d="M81.1655,10.52368 C79.303,10.52368 78.1355,9.04068952 78.1355,7.20032762 C78.1355,5.51896571 79.382,3.98297524 81.244,3.98297524 C82.503,3.98297524 83.6705,4.53972762 83.6705,5.63808952 C83.6705,6.15446095 83.29,6.59158476 82.8045,6.59158476 C82.267,6.59158476 81.913,6.27358476 81.8605,5.94296571 C81.913,5.82333714 82.018,5.6118419 82.018,5.32008952 C82.018,4.60534667 81.7555,4.19497524 81.1785,4.19497524 C80.3395,4.19497524 79.8145,5.42608952 79.8145,6.80358476 C79.8145,8.27294667 80.6275,9.30568952 81.7685,9.30568952 C82.8045,9.30568952 83.329,8.9084419 83.762,8.21994667 L83.867,8.27294667 C83.552,9.31881333 82.713,10.52368 81.1655,10.52368" id="Fill-7" fill="#FFFFFF"></path>
            <path d="M87.8955,10.4310057 L87.8955,10.2856343 C88.3675,10.2588819 88.735,10.1003867 88.735,9.8217581 L88.735,6.69778667 C88.735,5.77053905 88.4725,5.04216762 87.686,5.04216762 C87.135,5.04216762 86.8205,5.25416762 86.663,5.49241524 C86.6235,5.54541524 86.597,5.70441524 86.597,5.85029143 L86.597,9.8217581 C86.597,10.1528819 86.9905,10.2457581 87.3445,10.2982533 L87.3445,10.4310057 L84.184,10.4310057 L84.184,10.2982533 C84.591,10.2588819 84.9845,10.1003867 84.9845,9.7687581 L84.9845,2.59306286 C84.9845,2.46081524 84.971,2.40731048 84.853,2.31493905 C84.709,2.19581524 84.4205,2.07669143 84.1975,1.94444381 L84.1975,1.86469143 L86.5055,0.818824762 L86.6105,0.818824762 L86.5715,5.39953905 L86.597,5.41316762 C86.8335,4.97604381 87.594,3.98317714 88.84,3.98317714 C89.994,3.98317714 90.3615,4.84379619 90.3615,6.00878667 L90.3615,9.86163429 C90.3615,10.1261295 90.8465,10.2725105 91.148,10.3118819 L91.148,10.4310057 L87.8955,10.4310057 Z" id="Fill-9" fill="#FFFFFF"></path>
            <path d="M93.43455,3.13563143 C92.93655,3.13563143 92.49055,2.68538381 92.49055,2.18264095 C92.49055,1.63951714 92.91005,1.24277429 93.43455,1.24277429 C93.95955,1.24277429 94.37905,1.63951714 94.37905,2.18264095 C94.37905,2.69901238 93.94605,3.13563143 93.43455,3.13563143 Z M91.79555,10.4309552 L91.79555,10.2982029 C92.20205,10.2588314 92.68705,10.1003362 92.68705,9.76921238 L92.68705,5.54536476 C92.68705,5.41311714 92.67405,5.29399333 92.55605,5.21424095 C92.39905,5.10874571 92.14955,4.9896219 91.90055,4.91037429 L91.90055,4.83011714 L94.22155,3.97000286 L94.30005,3.97000286 L94.30005,9.80908857 C94.30005,10.1397076 94.81205,10.27246 95.13955,10.2982029 L95.13955,10.4309552 L91.79555,10.4309552 Z" id="Fill-11" fill="#FFFFFF"></path>
            <path d="M99.58055,10.4310057 L99.58055,10.2856343 C100.05255,10.2588819 100.36755,10.1003867 100.36755,9.8217581 L100.36755,6.69778667 C100.36755,5.83666286 100.09205,5.09567238 99.30505,5.09567238 C98.89905,5.09567238 98.54455,5.25416762 98.26905,5.55904381 L98.26905,9.84851048 C98.33505,10.1927581 98.63605,10.2457581 98.99055,10.2982533 L98.99055,10.4310057 L95.90855,10.4310057 L95.90855,10.2982533 C96.31505,10.2588819 96.65605,10.0468819 96.65605,9.7687581 L96.65605,5.53229143 C96.65605,5.39953905 96.64305,5.33341524 96.52505,5.25416762 C96.36755,5.16179619 96.11855,5.04216762 95.90855,4.94979619 L95.90855,4.87004381 L98.17705,3.97005333 L98.25655,3.97005333 L98.25655,5.41316762 L98.28205,5.43941524 C98.70205,4.81754857 99.42355,3.98317714 100.42005,3.98317714 C101.45605,3.98317714 101.99355,4.83016762 101.99355,6.02241524 L101.99355,9.86163429 C101.99355,10.1261295 102.50555,10.2725105 102.80705,10.3118819 L102.80705,10.4310057 L99.58055,10.4310057 Z" id="Fill-13" fill="#FFFFFF"></path>
            <path d="M105.75925,10.5103543 C104.84125,10.5103543 104.04125,10.2983543 103.46425,10.033859 L103.46425,8.02137333 L103.56925,8.02137333 C103.89675,8.82899238 104.72325,10.3251067 105.62825,10.3251067 C106.27075,10.3251067 106.90025,9.94098286 106.90025,9.00111619 C106.90025,8.45849714 106.50675,8.21974476 105.94275,8.06074476 C105.57575,7.95524952 104.99875,7.79624952 104.65775,7.67712571 C103.98875,7.42575429 103.52975,6.76350667 103.52975,5.91601143 C103.52975,4.72477333 104.73625,3.98277333 105.90375,3.98277333 C106.72975,3.98277333 107.43775,4.16903048 107.93625,4.36689714 L108.09375,6.27338286 L107.98875,6.30013524 C107.54275,5.34714476 106.71675,4.16903048 105.92975,4.16903048 C105.33975,4.16903048 104.86775,4.60564952 104.86775,5.22751619 C104.86775,5.86351619 105.26075,6.08813524 105.81175,6.24713524 C106.17925,6.35313524 106.76925,6.49901143 107.01875,6.57825905 C107.87075,6.84275429 108.44775,7.5050019 108.44775,8.43174476 C108.44775,9.87485905 107.11025,10.5103543 105.75925,10.5103543" id="Fill-15" fill="#FFFFFF"></path>
            <path d="M120.73485,4.15550286 C120.22335,2.50038857 118.80685,0.925026667 117.20635,0.925026667 C114.91185,0.925026667 113.74485,3.32163619 113.74485,5.70411238 C113.74485,8.2597219 115.05585,10.2722076 117.25935,10.2722076 C118.91185,10.2722076 120.36785,8.60396952 120.72185,7.12097905 L120.87885,7.12097905 L120.83935,10.2192076 L120.68235,10.2192076 C120.45935,9.91433143 120.18385,9.57058857 120.10485,9.57058857 C120.03935,9.57058857 119.05635,10.5104552 116.95735,10.5104552 C113.59985,10.5104552 111.58035,8.48484571 111.58035,5.63849333 C111.58035,5.0161219 111.71135,3.98287429 112.36735,2.96376 C113.12785,1.75889333 114.54435,0.699398095 116.90535,0.699398095 C119.00335,0.699398095 120.05285,1.67964571 120.13135,1.67964571 C120.19685,1.67964571 120.53785,1.2955219 120.74735,0.990645714 L120.89185,0.990645714 L120.89185,4.15550286 L120.73485,4.15550286 Z" id="Fill-17" fill="#FFFFFF"></path>
            <path d="M124.82665,4.20825048 C124.06615,4.20825048 123.64615,5.51911714 123.61965,6.00873619 C124.23615,6.00873619 124.49865,5.98248857 125.15415,5.95624095 C125.25915,5.95624095 125.45615,5.92948857 125.58715,5.86336476 C125.70515,5.74424095 125.75765,5.61148857 125.75765,5.38686952 C125.75765,4.8174981 125.42965,4.20825048 124.82665,4.20825048 M125.11465,10.497079 C123.14815,10.497079 121.98065,8.96159333 121.98065,7.09447905 C121.98065,5.59836476 123.08215,3.98312667 124.93115,3.98312667 C126.37415,3.98312667 127.50215,4.6716219 127.59365,6.19448857 L123.60715,6.19448857 C123.59365,6.33986 123.59365,6.47210762 123.59365,6.59173619 C123.59365,8.1272219 124.42015,9.29221238 125.77065,9.29221238 C126.55765,9.29221238 127.39715,8.86871714 127.60715,8.20697429 L127.73765,8.2332219 C127.56715,9.05446952 126.81965,10.497079 125.11465,10.497079" id="Fill-19" fill="#FFFFFF"></path>
            <path d="M131.87255,10.4310057 L131.87255,10.2856343 C132.34455,10.2588819 132.65955,10.1003867 132.65955,9.8217581 L132.65955,6.69778667 C132.65955,5.83666286 132.38405,5.09567238 131.59705,5.09567238 C131.19105,5.09567238 130.83655,5.25416762 130.56105,5.55904381 L130.56105,9.84851048 C130.62705,10.1927581 130.92805,10.2457581 131.28255,10.2982533 L131.28255,10.4310057 L128.20055,10.4310057 L128.20055,10.2982533 C128.60705,10.2588819 128.94805,10.0468819 128.94805,9.7687581 L128.94805,5.53229143 C128.94805,5.39953905 128.93505,5.33341524 128.81705,5.25416762 C128.65955,5.16179619 128.41055,5.04216762 128.20055,4.94979619 L128.20055,4.87004381 L130.46905,3.97005333 L130.54855,3.97005333 L130.54855,5.41316762 L130.57405,5.43941524 C130.99405,4.81754857 131.71555,3.98317714 132.71205,3.98317714 C133.74805,3.98317714 134.28555,4.83016762 134.28555,6.02241524 L134.28555,9.86163429 C134.28555,10.1261295 134.79755,10.2725105 135.09905,10.3118819 L135.09905,10.4310057 L131.87255,10.4310057 Z" id="Fill-21" fill="#FFFFFF"></path>
            <path d="M139.6782,4.9234981 L137.7897,4.9234981 L137.7897,8.2332219 C137.7897,9.13371714 138.1177,9.51784095 138.7337,9.51784095 C139.2457,9.51784095 139.6652,9.25284095 139.8487,8.98784095 L139.9277,9.02771714 C139.7307,9.57033619 139.0752,10.5238314 137.8422,10.5238314 C137.0027,10.5238314 136.1637,9.94083143 136.1637,9.37196476 C136.1637,7.71685048 136.2157,6.07486 136.2157,4.9234981 L135.2322,4.9234981 L135.2322,4.7776219 L137.6587,2.69901238 L137.7637,2.69901238 L137.7637,4.11537429 L140.0847,4.11537429 L139.6782,4.9234981 Z" id="Fill-23" fill="#FFFFFF"></path>
            <path d="M143.14205,4.20825048 C142.38155,4.20825048 141.96155,5.51911714 141.93505,6.00873619 C142.55155,6.00873619 142.81405,5.98248857 143.46955,5.95624095 C143.57455,5.95624095 143.77155,5.92948857 143.90255,5.86336476 C144.02055,5.74424095 144.07305,5.61148857 144.07305,5.38686952 C144.07305,4.8174981 143.74505,4.20825048 143.14205,4.20825048 M143.43005,10.497079 C141.46355,10.497079 140.29605,8.96159333 140.29605,7.09447905 C140.29605,5.59836476 141.39755,3.98312667 143.24655,3.98312667 C144.68955,3.98312667 145.81755,4.6716219 145.90905,6.19448857 L141.92255,6.19448857 C141.90905,6.33986 141.90905,6.47210762 141.90905,6.59173619 C141.90905,8.1272219 142.73555,9.29221238 144.08605,9.29221238 C144.87305,9.29221238 145.71255,8.86871714 145.92255,8.20697429 L146.05305,8.2332219 C145.88255,9.05446952 145.13505,10.497079 143.43005,10.497079" id="Fill-25" fill="#FFFFFF"></path>
            <path d="M150.8237,5.74424095 C150.0502,5.74424095 150.0892,5.22786952 149.8537,5.22786952 C149.4732,5.22786952 149.0662,5.58524095 148.8827,6.08848857 L148.8827,9.84846 C149.0007,10.1795838 149.6437,10.2457076 149.9977,10.2982029 L149.9977,10.4309552 L146.5222,10.4309552 L146.5222,10.2982029 C146.9287,10.2588314 147.2702,10.0468314 147.2702,9.76921238 L147.2702,5.61148857 C147.2702,5.47974571 147.2567,5.41311714 147.1387,5.33386952 C146.9812,5.24099333 146.7317,5.0956219 146.5222,5.00274571 L146.5222,4.9234981 L148.7912,3.97000286 L148.8697,3.97000286 L148.8437,5.82348857 L148.8697,5.82348857 C149.0532,5.39948857 149.5517,3.98312667 150.6797,3.98312667 C151.1387,3.98312667 151.4927,4.36674571 151.4927,4.8836219 C151.4927,5.41311714 151.1257,5.74424095 150.8237,5.74424095" id="Fill-27" fill="#FFFFFF"></path>
            <path d="M58.8081,16.393001 C57.9821,16.393001 57.8511,15.3733819 57.4966,15.1220105 C57.2741,15.1220105 56.8016,15.3203819 56.7361,16.4061248 C56.6966,17.1208676 56.6836,17.4524962 56.6836,18.0874867 L58.2316,18.0874867 L57.9951,18.7896105 L56.6706,18.7896105 L56.6706,23.7675724 C56.6706,24.0456962 57.2476,24.21782 57.7721,24.2703152 L57.7721,24.4030676 L53.9951,24.4030676 L53.9951,24.2703152 C54.4016,24.2309438 55.0576,24.00582 55.0576,23.7276962 L55.0576,18.7896105 L54.1131,18.7896105 L54.3226,18.0874867 L55.0701,18.0874867 C55.0701,17.41262 55.0966,16.6317533 55.3196,16.2345057 C55.8051,15.3602581 56.9326,14.7641343 58.2051,14.7641343 C58.8741,14.7641343 59.4506,15.0160105 59.4506,15.6116295 C59.4506,15.9957533 59.1626,16.393001 58.8081,16.393001" id="Fill-29" fill="#B59A2F"></path>
            <path d="M61.3999,18.1670876 C60.4819,18.1670876 59.9834,19.6763257 59.9834,21.2259448 C59.9834,22.7483067 60.3769,24.2837924 61.4784,24.2837924 C62.5279,24.2837924 62.8819,22.4303067 62.8819,21.1991924 C62.8819,19.9282019 62.5279,18.1670876 61.3999,18.1670876 M61.4389,24.4957924 C60.0229,24.4957924 58.2129,23.4499257 58.2129,21.2123162 C58.2129,19.5042019 59.4849,17.9550876 61.4654,17.9550876 C62.9604,17.9550876 64.6524,19.0145829 64.6524,21.2123162 C64.6524,23.0526781 63.2624,24.4957924 61.4389,24.4957924" id="Fill-31" fill="#B59A2F"></path>
            <path d="M69.5947,19.7163533 C68.8212,19.7163533 68.8602,19.1999819 68.6247,19.1999819 C68.2442,19.1999819 67.8372,19.5573533 67.6537,20.060601 L67.6537,23.8205724 C67.7717,24.1516962 68.4147,24.21782 68.7687,24.2703152 L68.7687,24.4030676 L65.2932,24.4030676 L65.2932,24.2703152 C65.6997,24.2309438 66.0412,24.0189438 66.0412,23.7413248 L66.0412,19.583601 C66.0412,19.4518581 66.0277,19.3852295 65.9097,19.3059819 C65.7522,19.2131057 65.5027,19.0677343 65.2932,18.9748581 L65.2932,18.8951057 L67.5622,17.9421152 L67.6407,17.9421152 L67.6147,19.795601 L67.6407,19.795601 C67.8242,19.371601 68.3227,17.955239 69.4507,17.955239 C69.9097,17.955239 70.2637,18.3388581 70.2637,18.8557343 C70.2637,19.3852295 69.8967,19.7163533 69.5947,19.7163533" id="Fill-33" fill="#B59A2F"></path>
            <path d="M76.68795,16.6976248 C76.39945,17.3729962 75.80945,18.8024819 75.11445,20.5368438 L78.16995,20.5368438 C77.64545,19.1603581 77.04195,17.5844914 76.68795,16.6976248 Z M78.14395,24.40332 L78.14395,24.2705676 C78.51095,24.2311962 79.19295,24.1650724 79.19295,23.6618248 C79.19295,23.3569486 78.79995,22.2050819 78.27495,20.8149676 L74.99595,20.8149676 C74.73395,21.4772152 74.51095,22.0067105 74.27495,22.6290819 C74.09145,23.1055771 73.99945,23.4629486 73.99945,23.6350724 C73.99945,24.0984438 74.62895,24.2175676 75.08795,24.2705676 L75.08795,24.40332 L72.26845,24.40332 L72.26845,24.2579486 C72.72745,24.2044438 73.10795,23.9399486 73.15995,23.8738248 C73.27845,23.7541962 73.56695,23.3175771 73.97295,22.4170819 C74.72045,20.7488438 75.71795,18.3658629 76.54395,16.3796248 L76.33395,15.9031295 C76.97645,15.6780057 77.64545,15.0955105 77.96045,14.685139 L78.06495,14.685139 C79.15395,17.6243676 79.99295,19.8882248 80.81945,22.1258343 C81.01595,22.6684533 81.15995,22.9733295 81.36995,23.4230724 C81.44845,23.5825771 81.82895,24.2175676 82.62945,24.24432 L82.62945,24.40332 L78.14395,24.40332 Z" id="Fill-35" fill="#B59A2F"></path>
            <path d="M87.75045,16.393001 C86.92445,16.393001 86.79345,15.3733819 86.43895,15.1220105 C86.21645,15.1220105 85.74395,15.3203819 85.67845,16.4061248 C85.63895,17.1208676 85.62595,17.4524962 85.62595,18.0874867 L87.17395,18.0874867 L86.93745,18.7896105 L85.61295,18.7896105 L85.61295,23.7675724 C85.61295,24.0456962 86.18995,24.21782 86.71445,24.2703152 L86.71445,24.4030676 L82.93745,24.4030676 L82.93745,24.2703152 C83.34395,24.2309438 83.99995,24.00582 83.99995,23.7276962 L83.99995,18.7896105 L83.05545,18.7896105 L83.26495,18.0874867 L84.01245,18.0874867 C84.01245,17.41262 84.03895,16.6317533 84.26195,16.2345057 C84.74745,15.3602581 85.87495,14.7641343 87.14745,14.7641343 C87.81645,14.7641343 88.39295,15.0160105 88.39295,15.6116295 C88.39295,15.9957533 88.10495,16.393001 87.75045,16.393001" id="Fill-37" fill="#B59A2F"></path>
            <path d="M91.90525,19.7163533 C91.13175,19.7163533 91.17075,19.1999819 90.93525,19.1999819 C90.55475,19.1999819 90.14775,19.5573533 89.96425,20.060601 L89.96425,23.8205724 C90.08225,24.1516962 90.72525,24.21782 91.07925,24.2703152 L91.07925,24.4030676 L87.60375,24.4030676 L87.60375,24.2703152 C88.01025,24.2309438 88.35175,24.0189438 88.35175,23.7413248 L88.35175,19.583601 C88.35175,19.4518581 88.33825,19.3852295 88.22025,19.3059819 C88.06275,19.2131057 87.81325,19.0677343 87.60375,18.9748581 L87.60375,18.8951057 L89.87275,17.9421152 L89.95125,17.9421152 L89.92525,19.795601 L89.95125,19.795601 C90.13475,19.371601 90.63325,17.955239 91.76125,17.955239 C92.22025,17.955239 92.57425,18.3388581 92.57425,18.8557343 C92.57425,19.3852295 92.20725,19.7163533 91.90525,19.7163533" id="Fill-39" fill="#B59A2F"></path>
            <path d="M94.6909,17.1077438 C94.1929,17.1077438 93.7469,16.6574962 93.7469,16.1547533 C93.7469,15.6116295 94.1664,15.2148867 94.6909,15.2148867 C95.2159,15.2148867 95.6354,15.6116295 95.6354,16.1547533 C95.6354,16.6711248 95.2024,17.1077438 94.6909,17.1077438 Z M93.0519,24.4030676 L93.0519,24.2703152 C93.4584,24.2309438 93.9434,24.0724486 93.9434,23.7413248 L93.9434,19.5174771 C93.9434,19.3852295 93.9304,19.2661057 93.8124,19.1863533 C93.6554,19.0808581 93.4059,18.9617343 93.1569,18.8824867 L93.1569,18.8022295 L95.4779,17.9421152 L95.5564,17.9421152 L95.5564,23.781201 C95.5564,24.11182 96.0684,24.2445724 96.3959,24.2703152 L96.3959,24.4030676 L93.0519,24.4030676 Z" id="Fill-41" fill="#B59A2F"></path>
            <path d="M99.92575,24.4958429 C98.06325,24.4958429 96.89575,23.0128524 96.89575,21.1724905 C96.89575,19.4911286 98.14225,17.9551381 100.00425,17.9551381 C101.26325,17.9551381 102.43075,18.5118905 102.43075,19.6102524 C102.43075,20.1266238 102.05025,20.5637476 101.56475,20.5637476 C101.02725,20.5637476 100.67325,20.2457476 100.62075,19.9151286 C100.67325,19.7955 100.77825,19.5840048 100.77825,19.2922524 C100.77825,18.5775095 100.51575,18.1671381 99.93875,18.1671381 C99.09975,18.1671381 98.57475,19.3982524 98.57475,20.7757476 C98.57475,22.2451095 99.38775,23.2778524 100.52875,23.2778524 C101.56475,23.2778524 102.08925,22.8806048 102.52225,22.1921095 L102.62725,22.2451095 C102.31225,23.2909762 101.47325,24.4958429 99.92575,24.4958429" id="Fill-43" fill="#B59A2F"></path>
            <path d="M106.46045,20.7756971 C105.90945,21.1991924 104.91295,21.4773162 104.91295,22.563059 C104.91295,22.9996781 105.26695,23.3570495 105.64745,23.3570495 C105.89645,23.3570495 106.30345,23.2778019 106.38195,23.1324305 C106.44745,23.0264305 106.46045,22.9335543 106.46045,22.8013067 L106.46045,20.7756971 Z M107.85045,24.46904 C107.16895,24.46904 106.53895,24.032421 106.48695,23.2116781 L106.46045,23.1985543 C106.18495,23.8602971 105.58195,24.46904 104.61145,24.46904 C103.96895,24.46904 103.31295,24.0591733 103.31295,23.1450495 C103.31295,22.6291829 103.75895,22.0729352 104.34895,21.7418114 C105.52945,21.0800686 106.09345,20.8150686 106.46045,20.5899448 L106.46045,19.5839543 C106.38195,19.0675829 105.97495,18.630459 105.47695,18.5643352 C104.93895,18.6435829 104.87345,18.948459 104.87345,19.1735829 L104.87345,20.1932019 C104.87345,20.4445733 104.40145,20.7090686 103.98195,20.7090686 C103.60145,20.7090686 103.23445,20.4445733 103.23445,20.0872019 C103.23445,19.5703257 103.54895,19.3058305 103.98195,19.0408305 C104.80795,18.5375829 106.14595,17.98184 106.64395,17.9550876 C107.24745,17.9949638 107.67995,18.19384 107.99495,18.8293352 C108.06045,18.948459 108.07395,19.3058305 108.07395,19.6102019 C108.07395,20.8685733 108.03395,21.1855638 108.03395,22.3904305 C108.03395,23.1849257 108.34895,23.3838019 108.68995,23.3838019 C109.09645,23.3838019 109.25395,23.1450495 109.31995,22.8805543 L109.41145,22.8805543 C109.37195,23.5559257 108.75595,24.46904 107.85045,24.46904 Z" id="Fill-45" fill="#B59A2F"></path>
            <path d="M113.35155,24.4031686 L113.35155,24.2577971 C113.82355,24.2310448 114.13855,24.0725495 114.13855,23.793921 L114.13855,20.6699495 C114.13855,19.8088257 113.86305,19.0678352 113.07605,19.0678352 C112.67005,19.0678352 112.31555,19.2263305 112.04005,19.5312067 L112.04005,23.8206733 C112.10605,24.164921 112.40755,24.217921 112.76155,24.2704162 L112.76155,24.4031686 L109.67955,24.4031686 L109.67955,24.2704162 C110.08605,24.2310448 110.42705,24.0190448 110.42705,23.740921 L110.42705,19.5044543 C110.42705,19.3717019 110.41405,19.3055781 110.29605,19.2263305 C110.13855,19.133959 109.88905,19.0143305 109.67955,18.921959 L109.67955,18.8422067 L111.94805,17.9422162 L112.02755,17.9422162 L112.02755,19.3853305 L112.05305,19.4115781 C112.47305,18.7897114 113.19455,17.95534 114.19105,17.95534 C115.22705,17.95534 115.76505,18.8023305 115.76505,19.9945781 L115.76505,23.8337971 C115.76505,24.0982924 116.27655,24.2446733 116.57805,24.2840448 L116.57805,24.4031686 L113.35155,24.4031686 Z" id="Fill-47" fill="#B59A2F"></path>
            <path d="M123.52635,14.9630105 C122.93585,14.9630105 122.63435,15.6515057 122.63435,16.0623819 C122.63435,16.6317533 122.70035,16.8694962 122.96235,17.2404962 C123.26435,17.6644962 123.57835,17.9158676 124.05085,18.3388581 C124.40485,17.9158676 124.50985,17.3863724 124.50985,16.6574962 C124.50985,15.8503819 124.18235,14.9630105 123.52635,14.9630105 M123.90685,20.60322 C123.55285,20.1797248 122.80535,19.5043533 122.46385,19.1999819 C121.97835,19.7431057 121.66385,20.4310962 121.66385,21.5430867 C121.66385,22.6424581 122.41185,23.4233248 123.31635,23.4233248 C124.30035,23.4233248 124.65435,23.2380771 125.40185,22.6555819 C124.92985,21.8610867 124.54935,21.3709629 123.90685,20.60322 M128.27385,24.6019438 C126.80535,24.6019438 126.09685,23.7413248 125.49385,22.8009533 C124.89035,23.6216962 123.78835,24.53582 122.34635,24.53582 C120.71985,24.53582 119.76235,23.4364486 119.76235,22.1523343 C119.76235,20.6299724 121.11335,19.689601 122.31985,19.0808581 C121.54585,18.2863629 120.96885,17.8891152 120.96885,16.7241248 C120.96885,15.5722581 122.09685,14.711639 123.49985,14.711639 C124.74585,14.711639 125.87385,15.2678867 125.87385,16.393001 C125.87385,17.5978676 124.69335,18.1934867 124.16885,18.4448581 C124.70635,18.8688581 125.15235,19.3458581 125.58535,19.8354771 C125.96585,20.2589724 126.34635,20.8015914 126.66085,21.2649629 C127.39485,20.2988486 127.88035,19.4251057 127.88035,18.8557343 C127.88035,18.0874867 127.10635,18.061239 126.30685,18.0349914 L126.30685,17.8759914 L130.88385,17.7699914 L130.88385,17.9289914 C129.12635,18.1536105 128.10335,19.848601 126.76585,21.4375914 C127.08035,21.887839 127.35585,22.2977057 127.91985,22.8807057 C128.37885,23.357201 128.78535,23.5555724 129.46735,23.5555724 C130.16235,23.5555724 130.72635,23.0659533 130.98885,22.6293343 L131.10685,22.6818295 C130.87035,23.3970771 129.87385,24.6019438 128.27385,24.6019438" id="Fill-49" fill="#B59A2F"></path>
            <path d="M57.89015,30.6692829 C57.60165,31.3446543 57.01165,32.77414 56.31665,34.5085019 L59.37215,34.5085019 C58.84765,33.1320162 58.24415,31.5561495 57.89015,30.6692829 Z M59.34615,38.3749781 L59.34615,38.2422257 C59.71315,38.2028543 60.39515,38.1367305 60.39515,37.6334829 C60.39515,37.3286067 60.00215,36.17674 59.47715,34.7866257 L56.19815,34.7866257 C55.93615,35.4488733 55.71315,35.9783686 55.47715,36.60074 C55.29365,37.0772352 55.20165,37.4346067 55.20165,37.6067305 C55.20165,38.0701019 55.83115,38.1892257 56.29015,38.2422257 L56.29015,38.3749781 L53.47065,38.3749781 L53.47065,38.2296067 C53.92965,38.1761019 54.31015,37.9116067 54.36215,37.8454829 C54.48065,37.7258543 54.76915,37.2892352 55.17515,36.38874 C55.92265,34.7205019 56.92015,32.337521 57.74615,30.3512829 L57.53615,29.8747876 C58.17865,29.6496638 58.84765,29.0671686 59.16265,28.6567971 L59.26715,28.6567971 C60.35615,31.5960257 61.19515,33.8598829 62.02165,36.0974924 C62.21815,36.6401114 62.36215,36.9449876 62.57215,37.3947305 C62.65065,37.5542352 63.03115,38.1892257 63.83165,38.2159781 L63.83165,38.3749781 L59.34615,38.3749781 Z" id="Fill-51" fill="#B59A2F"></path>
            <path d="M68.9526,30.364659 C68.1266,30.364659 67.9956,29.34504 67.6411,29.0936686 C67.4186,29.0936686 66.9461,29.29204 66.8806,30.3777829 C66.8411,31.0925257 66.8281,31.4241543 66.8281,32.0591448 L68.3761,32.0591448 L68.1396,32.7612686 L66.8151,32.7612686 L66.8151,37.7392305 C66.8151,38.0173543 67.3921,38.1894781 67.9166,38.2419733 L67.9166,38.3747257 L64.1396,38.3747257 L64.1396,38.2419733 C64.5461,38.2026019 65.2021,37.9774781 65.2021,37.6993543 L65.2021,32.7612686 L64.2576,32.7612686 L64.4671,32.0591448 L65.2146,32.0591448 C65.2146,31.3842781 65.2411,30.6034114 65.4641,30.2061638 C65.9496,29.3319162 67.0771,28.7357924 68.3496,28.7357924 C69.0186,28.7357924 69.5951,28.9876686 69.5951,29.5832876 C69.5951,29.9674114 69.3071,30.364659 68.9526,30.364659" id="Fill-53" fill="#B59A2F"></path>
            <path d="M73.1074,33.6880114 C72.3339,33.6880114 72.3729,33.17164 72.1374,33.17164 C71.7569,33.17164 71.3499,33.5290114 71.1664,34.032259 L71.1664,37.7922305 C71.2844,38.1233543 71.9274,38.1894781 72.2814,38.2419733 L72.2814,38.3747257 L68.8059,38.3747257 L68.8059,38.2419733 C69.2124,38.2026019 69.5539,37.9906019 69.5539,37.7129829 L69.5539,33.555259 C69.5539,33.4235162 69.5404,33.3568876 69.4224,33.27764 C69.2649,33.1847638 69.0154,33.0393924 68.8059,32.9465162 L68.8059,32.8667638 L71.0749,31.9137733 L71.1534,31.9137733 L71.1274,33.767259 L71.1534,33.767259 C71.3369,33.343259 71.8354,31.9268971 72.9634,31.9268971 C73.4224,31.9268971 73.7764,32.3105162 73.7764,32.8273924 C73.7764,33.3568876 73.4094,33.6880114 73.1074,33.6880114" id="Fill-55" fill="#B59A2F"></path>
            <path d="M75.89305,31.0794019 C75.39505,31.0794019 74.94905,30.6291543 74.94905,30.1264114 C74.94905,29.5832876 75.36855,29.1865448 75.89305,29.1865448 C76.41805,29.1865448 76.83755,29.5832876 76.83755,30.1264114 C76.83755,30.6427829 76.40455,31.0794019 75.89305,31.0794019 Z M74.25405,38.3747257 L74.25405,38.2419733 C74.66055,38.2026019 75.14555,38.0441067 75.14555,37.7129829 L75.14555,33.4891352 C75.14555,33.3568876 75.13255,33.2377638 75.01455,33.1580114 C74.85755,33.0525162 74.60805,32.9333924 74.35905,32.8541448 L74.35905,32.7738876 L76.68005,31.9137733 L76.75855,31.9137733 L76.75855,37.752859 C76.75855,38.0834781 77.27055,38.2162305 77.59805,38.2419733 L77.59805,38.3747257 L74.25405,38.3747257 Z" id="Fill-57" fill="#B59A2F"></path>
            <path d="M81.1279,38.467501 C79.2654,38.467501 78.0979,36.9845105 78.0979,35.1441486 C78.0979,33.4627867 79.3444,31.9267962 81.2064,31.9267962 C82.4654,31.9267962 83.6329,32.4835486 83.6329,33.5819105 C83.6329,34.0982819 83.2524,34.5354057 82.7669,34.5354057 C82.2294,34.5354057 81.8754,34.2174057 81.8229,33.8867867 C81.8754,33.7671581 81.9804,33.5556629 81.9804,33.2639105 C81.9804,32.5491676 81.7179,32.1387962 81.1409,32.1387962 C80.3019,32.1387962 79.7769,33.3699105 79.7769,34.7474057 C79.7769,36.2167676 80.5899,37.2495105 81.7309,37.2495105 C82.7669,37.2495105 83.2914,36.8522629 83.7244,36.1637676 L83.8294,36.2167676 C83.5144,37.2626343 82.6754,38.467501 81.1279,38.467501" id="Fill-59" fill="#B59A2F"></path>
            <path d="M87.6621,34.7473048 C87.1111,35.1708 86.1146,35.4489238 86.1146,36.5346667 C86.1146,36.9712857 86.4686,37.3286571 86.8491,37.3286571 C87.0981,37.3286571 87.5051,37.2494095 87.5836,37.1040381 C87.6491,36.9980381 87.6621,36.9051619 87.6621,36.7729143 L87.6621,34.7473048 Z M89.0521,38.4406476 C88.3706,38.4406476 87.7406,38.0040286 87.6886,37.1832857 L87.6621,37.1701619 C87.3866,37.8319048 86.7836,38.4406476 85.8131,38.4406476 C85.1706,38.4406476 84.5146,38.030781 84.5146,37.1166571 C84.5146,36.6007905 84.9606,36.0445429 85.5506,35.713419 C86.7311,35.0516762 87.2951,34.7866762 87.6621,34.5615524 L87.6621,33.5555619 C87.5836,33.0391905 87.1766,32.6020667 86.6786,32.5359429 C86.1406,32.6151905 86.0751,32.9200667 86.0751,33.1451905 L86.0751,34.1648095 C86.0751,34.416181 85.6031,34.6806762 85.1836,34.6806762 C84.8031,34.6806762 84.4361,34.416181 84.4361,34.0588095 C84.4361,33.5419333 84.7506,33.2774381 85.1836,33.0124381 C86.0096,32.5091905 87.3476,31.9534476 87.8456,31.9266952 C88.4491,31.9665714 88.8816,32.1654476 89.1966,32.8009429 C89.2621,32.9200667 89.2756,33.2774381 89.2756,33.5818095 C89.2756,34.840181 89.2356,35.1571714 89.2356,36.3620381 C89.2356,37.1565333 89.5506,37.3554095 89.8916,37.3554095 C90.2981,37.3554095 90.4556,37.1166571 90.5216,36.8521619 L90.6131,36.8521619 C90.5736,37.5275333 89.9576,38.4406476 89.0521,38.4406476 Z" id="Fill-61" fill="#B59A2F"></path>
            <path d="M94.5537,38.3748267 L94.5537,38.2294552 C95.0257,38.2027029 95.3407,38.0442076 95.3407,37.765579 L95.3407,34.6416076 C95.3407,33.7804838 95.0652,33.0394933 94.2782,33.0394933 C93.8722,33.0394933 93.5177,33.1979886 93.2422,33.5028648 L93.2422,37.7923314 C93.3082,38.136579 93.6097,38.189579 93.9637,38.2420743 L93.9637,38.3748267 L90.8817,38.3748267 L90.8817,38.2420743 C91.2882,38.2027029 91.6292,37.9907029 91.6292,37.712579 L91.6292,33.4761124 C91.6292,33.34336 91.6162,33.2772362 91.4982,33.1979886 C91.3407,33.1056171 91.0912,32.9859886 90.8817,32.8936171 L90.8817,32.8138648 L93.1502,31.9138743 L93.2297,31.9138743 L93.2297,33.3569886 L93.2552,33.3832362 C93.6752,32.7613695 94.3967,31.9269981 95.3932,31.9269981 C96.4292,31.9269981 96.9672,32.7739886 96.9672,33.9662362 L96.9672,37.8054552 C96.9672,38.0699505 97.4787,38.2163314 97.7802,38.2557029 L97.7802,38.3748267 L94.5537,38.3748267 Z" id="Fill-63" fill="#B59A2F"></path>
            <path d="M104.41355,30.6692829 C104.12505,31.3446543 103.53505,32.77414 102.84005,34.5085019 L105.89555,34.5085019 C105.37105,33.1320162 104.76755,31.5561495 104.41355,30.6692829 Z M105.86955,38.3749781 L105.86955,38.2422257 C106.23655,38.2028543 106.91855,38.1367305 106.91855,37.6334829 C106.91855,37.3286067 106.52555,36.17674 106.00055,34.7866257 L102.72155,34.7866257 C102.45955,35.4488733 102.23655,35.9783686 102.00055,36.60074 C101.81705,37.0772352 101.72505,37.4346067 101.72505,37.6067305 C101.72505,38.0701019 102.35455,38.1892257 102.81355,38.2422257 L102.81355,38.3749781 L99.99405,38.3749781 L99.99405,38.2296067 C100.45305,38.1761019 100.83355,37.9116067 100.88555,37.8454829 C101.00405,37.7258543 101.29255,37.2892352 101.69855,36.38874 C102.44605,34.7205019 103.44355,32.337521 104.26955,30.3512829 L104.05955,29.8747876 C104.70205,29.6496638 105.37105,29.0671686 105.68605,28.6567971 L105.79055,28.6567971 C106.87955,31.5960257 107.71855,33.8598829 108.54505,36.0974924 C108.74155,36.6401114 108.88555,36.9449876 109.09555,37.3947305 C109.17405,37.5542352 109.55455,38.1892257 110.35505,38.2159781 L110.35505,38.3749781 L105.86955,38.3749781 Z" id="Fill-65" fill="#B59A2F"></path>
            <path d="M118.10155,38.3748267 L118.10155,38.2294552 C118.57355,38.2027029 118.83655,38.0442076 118.83655,37.765579 L118.83655,34.574979 C118.83655,33.6482362 118.56105,33.0258648 117.83955,33.0258648 C117.39355,33.0258648 117.03955,33.2772362 116.81655,33.55536 L116.81655,37.8054552 C116.81655,38.0699505 117.23655,38.2163314 117.53755,38.2557029 L117.53755,38.3748267 L114.40355,38.3748267 L114.40355,38.2294552 C114.87555,38.2027029 115.19055,38.0442076 115.19055,37.765579 L115.19055,34.5613505 C115.19055,33.6346076 114.94105,33.0258648 114.19355,33.0258648 C113.76055,33.0258648 113.44555,33.1712362 113.17055,33.4892362 L113.17055,37.7923314 C113.23655,38.136579 113.55055,38.189579 113.90455,38.2420743 L113.90455,38.3748267 L110.81005,38.3748267 L110.81005,38.2420743 C111.21605,38.2027029 111.55755,37.9907029 111.55755,37.712579 L111.55755,33.5028648 C111.55755,33.3701124 111.54455,33.3039886 111.42605,33.224741 C111.26905,33.1318648 111.01955,33.012741 110.81005,32.9198648 L110.81005,32.8138648 L113.07855,31.9138743 L113.15705,31.9138743 L113.15705,33.34336 L113.18355,33.3569886 C113.53755,32.7214933 114.27205,31.9269981 115.28205,31.9269981 C116.10855,31.9269981 116.65905,32.5094933 116.77755,33.4362362 L116.81655,33.4362362 C117.11805,32.7876171 117.91805,31.9269981 118.92805,31.9269981 C119.93805,31.9269981 120.46255,32.7613695 120.46255,33.9127314 L120.46255,37.8054552 C120.46255,38.0699505 120.93455,38.2163314 121.23655,38.2557029 L121.23655,38.3748267 L118.10155,38.3748267 Z" id="Fill-67" fill="#B59A2F"></path>
            <path d="M124.5503,32.152021 C123.7898,32.152021 123.3698,33.4628876 123.3433,33.9525067 C123.9598,33.9525067 124.2223,33.926259 124.8778,33.9000114 C124.9828,33.9000114 125.1798,33.873259 125.3108,33.8071352 C125.4288,33.6880114 125.4813,33.555259 125.4813,33.33064 C125.4813,32.7612686 125.1533,32.152021 124.5503,32.152021 M124.8383,38.4408495 C122.8718,38.4408495 121.7043,36.9053638 121.7043,35.0382495 C121.7043,33.5421352 122.8058,31.9268971 124.6548,31.9268971 C126.0978,31.9268971 127.2258,32.6153924 127.3173,34.138259 L123.3308,34.138259 C123.3173,34.2836305 123.3173,34.4158781 123.3173,34.5355067 C123.3173,36.0709924 124.1438,37.2359829 125.4943,37.2359829 C126.2813,37.2359829 127.1208,36.8124876 127.3308,36.1507448 L127.4613,36.1769924 C127.2908,36.99824 126.5433,38.4408495 124.8383,38.4408495" id="Fill-69" fill="#B59A2F"></path>
            <path d="M132.2324,33.6880114 C131.4589,33.6880114 131.4979,33.17164 131.2624,33.17164 C130.8819,33.17164 130.4749,33.5290114 130.2914,34.032259 L130.2914,37.7922305 C130.4094,38.1233543 131.0524,38.1894781 131.4064,38.2419733 L131.4064,38.3747257 L127.9309,38.3747257 L127.9309,38.2419733 C128.3374,38.2026019 128.6789,37.9906019 128.6789,37.7129829 L128.6789,33.555259 C128.6789,33.4235162 128.6654,33.3568876 128.5474,33.27764 C128.3899,33.1847638 128.1404,33.0393924 127.9309,32.9465162 L127.9309,32.8667638 L130.1999,31.9137733 L130.2784,31.9137733 L130.2524,33.767259 L130.2784,33.767259 C130.4619,33.343259 130.9604,31.9268971 132.0884,31.9268971 C132.5474,31.9268971 132.9014,32.3105162 132.9014,32.8273924 C132.9014,33.3568876 132.5344,33.6880114 132.2324,33.6880114" id="Fill-71" fill="#B59A2F"></path>
            <path d="M135.01805,31.0794019 C134.52005,31.0794019 134.07405,30.6291543 134.07405,30.1264114 C134.07405,29.5832876 134.49355,29.1865448 135.01805,29.1865448 C135.54305,29.1865448 135.96255,29.5832876 135.96255,30.1264114 C135.96255,30.6427829 135.52955,31.0794019 135.01805,31.0794019 Z M133.37905,38.3747257 L133.37905,38.2419733 C133.78555,38.2026019 134.27055,38.0441067 134.27055,37.7129829 L134.27055,33.4891352 C134.27055,33.3568876 134.25755,33.2377638 134.13955,33.1580114 C133.98255,33.0525162 133.73305,32.9333924 133.48405,32.8541448 L133.48405,32.7738876 L135.80505,31.9137733 L135.88355,31.9137733 L135.88355,37.752859 C135.88355,38.0834781 136.39555,38.2162305 136.72305,38.2419733 L136.72305,38.3747257 L133.37905,38.3747257 Z" id="Fill-73" fill="#B59A2F"></path>
            <path d="M140.2529,38.467501 C138.3904,38.467501 137.2229,36.9845105 137.2229,35.1441486 C137.2229,33.4627867 138.4694,31.9267962 140.3314,31.9267962 C141.5904,31.9267962 142.7579,32.4835486 142.7579,33.5819105 C142.7579,34.0982819 142.3774,34.5354057 141.8919,34.5354057 C141.3544,34.5354057 141.0004,34.2174057 140.9479,33.8867867 C141.0004,33.7671581 141.1054,33.5556629 141.1054,33.2639105 C141.1054,32.5491676 140.8429,32.1387962 140.2659,32.1387962 C139.4269,32.1387962 138.9019,33.3699105 138.9019,34.7474057 C138.9019,36.2167676 139.7149,37.2495105 140.8559,37.2495105 C141.8919,37.2495105 142.4164,36.8522629 142.8494,36.1637676 L142.9544,36.2167676 C142.6394,37.2626343 141.8004,38.467501 140.2529,38.467501" id="Fill-75" fill="#B59A2F"></path>
            <path d="M146.7871,34.7473048 C146.2361,35.1708 145.2396,35.4489238 145.2396,36.5346667 C145.2396,36.9712857 145.5936,37.3286571 145.9741,37.3286571 C146.2231,37.3286571 146.6301,37.2494095 146.7086,37.1040381 C146.7741,36.9980381 146.7871,36.9051619 146.7871,36.7729143 L146.7871,34.7473048 Z M148.1771,38.4406476 C147.4956,38.4406476 146.8656,38.0040286 146.8136,37.1832857 L146.7871,37.1701619 C146.5116,37.8319048 145.9086,38.4406476 144.9381,38.4406476 C144.2956,38.4406476 143.6396,38.030781 143.6396,37.1166571 C143.6396,36.6007905 144.0856,36.0445429 144.6756,35.713419 C145.8561,35.0516762 146.4201,34.7866762 146.7871,34.5615524 L146.7871,33.5555619 C146.7086,33.0391905 146.3016,32.6020667 145.8036,32.5359429 C145.2656,32.6151905 145.2001,32.9200667 145.2001,33.1451905 L145.2001,34.1648095 C145.2001,34.416181 144.7281,34.6806762 144.3086,34.6806762 C143.9281,34.6806762 143.5611,34.416181 143.5611,34.0588095 C143.5611,33.5419333 143.8756,33.2774381 144.3086,33.0124381 C145.1346,32.5091905 146.4726,31.9534476 146.9706,31.9266952 C147.5741,31.9665714 148.0066,32.1654476 148.3216,32.8009429 C148.3871,32.9200667 148.4006,33.2774381 148.4006,33.5818095 C148.4006,34.840181 148.3606,35.1571714 148.3606,36.3620381 C148.3606,37.1565333 148.6756,37.3554095 149.0166,37.3554095 C149.4231,37.3554095 149.5806,37.1166571 149.6466,36.8521619 L149.7381,36.8521619 C149.6986,37.5275333 149.0826,38.4406476 148.1771,38.4406476 Z" id="Fill-77" fill="#B59A2F"></path>
            <g id="Group-81" transform="translate(150.000000, 31.529952)">
                <mask id="mask-2" fill="white">
                    <use xlink:href="#path-1"></use>
                </mask>
                <g id="Clip-80"></g>
                <path d="M3.6787,6.84487429 L3.6787,6.69950286 C4.1507,6.67275048 4.4657,6.51425524 4.4657,6.23562667 L4.4657,3.11165524 C4.4657,2.25053143 4.1902,1.50954095 3.4032,1.50954095 C2.9972,1.50954095 2.6427,1.66803619 2.3672,1.97291238 L2.3672,6.26237905 C2.4332,6.60662667 2.7347,6.65962667 3.0887,6.7121219 L3.0887,6.84487429 L0.0067,6.84487429 L0.0067,6.7121219 C0.4132,6.67275048 0.7542,6.46075048 0.7542,6.18262667 L0.7542,1.94616 C0.7542,1.81340762 0.7412,1.74728381 0.6232,1.66803619 C0.4657,1.57566476 0.2162,1.45603619 0.0067,1.36366476 L0.0067,1.28391238 L2.2752,0.383921905 L2.3547,0.383921905 L2.3547,1.82703619 L2.3802,1.85328381 C2.8002,1.23141714 3.5217,0.397045714 4.5182,0.397045714 C5.5542,0.397045714 6.0922,1.24403619 6.0922,2.43628381 L6.0922,6.27550286 C6.0922,6.5399981 6.6037,6.68637905 6.9052,6.72575048 L6.9052,6.84487429 L3.6787,6.84487429 Z" id="Fill-79" fill="#B59A2F" mask="url(#mask-2)"></path>
            </g>
            <path d="M59.6084,43.2908038 C59.2544,43.0919276 58.8609,43.01268 58.4409,43.01268 C58.1264,43.01268 57.9299,43.0394324 57.8379,43.0525562 C57.7984,43.2640514 57.7854,43.2640514 57.7719,44.0585467 C57.7329,45.2901657 57.7459,47.4081467 57.7459,47.6862705 C58.3489,47.6862705 58.7824,47.6736514 59.3719,47.4480229 C60.3164,47.0906514 60.6704,46.2300324 60.6704,45.2770419 C60.6704,44.4027943 60.3164,43.6880514 59.6084,43.2908038 Z M61.6544,52.3467371 C61.3524,52.0292419 61.4444,52.1614895 60.8934,51.3407467 C60.2379,50.3610038 59.9754,49.8183848 59.1364,48.8381371 C58.7954,48.4408895 58.3624,47.9775181 57.9034,47.8851467 C57.8509,47.8720229 57.8114,47.8720229 57.7459,47.858899 C57.7459,48.9976419 57.7459,49.8446324 57.7594,50.4271276 C57.7719,50.996499 57.7594,51.3937467 57.9299,51.6582419 C58.0739,51.8833657 58.5194,52.1882419 59.2279,52.2144895 L59.2279,52.3467371 L54.4019,52.3467371 L54.4019,52.2144895 C54.8344,52.1483657 55.3329,52.0161181 55.5559,51.7374895 C55.7394,51.5128705 55.7524,50.8511276 55.7654,50.2817562 C55.7789,49.7916324 55.7919,48.6135181 55.7919,47.540899 L55.7919,44.9590419 C55.7919,44.3235467 55.7789,43.5820514 55.5689,43.3569276 C55.3064,43.0788038 54.9524,43.01268 54.4804,42.9465562 L54.4804,42.8143086 C54.7559,42.8143086 57.6544,42.80068 58.5984,42.80068 C59.7654,42.80068 60.6834,42.8274324 61.4314,43.2115562 C62.2049,43.6088038 62.7559,44.2705467 62.7559,45.3300419 C62.7559,46.62728 61.7594,47.4217752 60.5659,47.7922705 L60.5659,47.8190229 C60.8279,47.964899 61.1689,48.3485181 61.4314,48.7195181 C61.8899,49.3807562 62.4539,50.2287562 62.8739,50.8243752 C63.5164,51.7511181 64.0674,52.0953657 64.8934,52.2144895 L64.8934,52.3467371 L61.6544,52.3467371 Z" id="Fill-82" fill="#B59A2F"></path>
            <path d="M67.48385,46.1241838 C66.72335,46.1241838 66.30335,47.4350505 66.27685,47.9246695 C66.89335,47.9246695 67.15585,47.8984219 67.81135,47.8721743 C67.91635,47.8721743 68.11335,47.8454219 68.24435,47.7792981 C68.36235,47.6601743 68.41485,47.5274219 68.41485,47.3028029 C68.41485,46.7334314 68.08685,46.1241838 67.48385,46.1241838 M67.77185,52.4130124 C65.80535,52.4130124 64.63785,50.8775267 64.63785,49.0104124 C64.63785,47.5142981 65.73935,45.89906 67.58835,45.89906 C69.03135,45.89906 70.15935,46.5875552 70.25085,48.1104219 L66.26435,48.1104219 C66.25085,48.2557933 66.25085,48.388041 66.25085,48.5076695 C66.25085,50.0431552 67.07735,51.2081457 68.42785,51.2081457 C69.21485,51.2081457 70.05435,50.7846505 70.26435,50.1229076 L70.39485,50.1491552 C70.22435,50.9704029 69.47685,52.4130124 67.77185,52.4130124" id="Fill-84" fill="#B59A2F"></path>
            <path d="M73.42185,52.4263381 C72.50385,52.4263381 71.70385,52.2143381 71.12685,51.9498429 L71.12685,49.9373571 L71.23185,49.9373571 C71.55935,50.7449762 72.38585,52.2410905 73.29085,52.2410905 C73.93335,52.2410905 74.56285,51.8569667 74.56285,50.9171 C74.56285,50.374481 74.16935,50.1357286 73.60535,49.9767286 C73.23835,49.8712333 72.66135,49.7122333 72.32035,49.5931095 C71.65135,49.3417381 71.19235,48.6794905 71.19235,47.8319952 C71.19235,46.6407571 72.39885,45.8987571 73.56635,45.8987571 C74.39235,45.8987571 75.10035,46.0850143 75.59885,46.282881 L75.75635,48.1893667 L75.65135,48.216119 C75.20535,47.2631286 74.37935,46.0850143 73.59235,46.0850143 C73.00235,46.0850143 72.53035,46.5216333 72.53035,47.1435 C72.53035,47.7795 72.92335,48.004119 73.47435,48.163119 C73.84185,48.269119 74.43185,48.4149952 74.68135,48.4942429 C75.53385,48.7587381 76.11035,49.4209857 76.11035,50.3477286 C76.11035,51.7908429 74.77285,52.4263381 73.42185,52.4263381" id="Fill-86" fill="#B59A2F"></path>
            <path d="M79.64745,46.1241838 C78.88695,46.1241838 78.46695,47.4350505 78.44045,47.9246695 C79.05695,47.9246695 79.31945,47.8984219 79.97495,47.8721743 C80.07995,47.8721743 80.27695,47.8454219 80.40795,47.7792981 C80.52595,47.6601743 80.57845,47.5274219 80.57845,47.3028029 C80.57845,46.7334314 80.25045,46.1241838 79.64745,46.1241838 M79.93545,52.4130124 C77.96895,52.4130124 76.80145,50.8775267 76.80145,49.0104124 C76.80145,47.5142981 77.90295,45.89906 79.75195,45.89906 C81.19495,45.89906 82.32295,46.5875552 82.41445,48.1104219 L78.42795,48.1104219 C78.41445,48.2557933 78.41445,48.388041 78.41445,48.5076695 C78.41445,50.0431552 79.24095,51.2081457 80.59145,51.2081457 C81.37845,51.2081457 82.21795,50.7846505 82.42795,50.1229076 L82.55845,50.1491552 C82.38795,50.9704029 81.64045,52.4130124 79.93545,52.4130124" id="Fill-88" fill="#B59A2F"></path>
            <path d="M86.4365,48.7194676 C85.8855,49.1429629 84.889,49.4210867 84.889,50.5068295 C84.889,50.9434486 85.243,51.30082 85.6235,51.30082 C85.8725,51.30082 86.2795,51.2215724 86.358,51.0756962 C86.4235,50.970201 86.4365,50.8773248 86.4365,50.7450771 L86.4365,48.7194676 Z M87.8265,52.4128105 C87.145,52.4128105 86.515,51.9761914 86.463,51.1554486 L86.4365,51.1423248 C86.161,51.8040676 85.558,52.4128105 84.5875,52.4128105 C83.945,52.4128105 83.289,52.0029438 83.289,51.08882 C83.289,50.5729533 83.735,50.0167057 84.325,49.6855819 C85.5055,49.023839 86.0695,48.758839 86.4365,48.53422 L86.4365,47.5277248 C86.358,47.0113533 85.951,46.5742295 85.453,46.5081057 C84.915,46.5873533 84.8495,46.8922295 84.8495,47.1173533 L84.8495,48.1369724 C84.8495,48.3883438 84.3775,48.652839 83.958,48.652839 C83.5775,48.652839 83.2105,48.3883438 83.2105,48.0309724 C83.2105,47.5140962 83.525,47.249601 83.958,46.984601 C84.784,46.4813533 86.122,45.9256105 86.62,45.8988581 C87.2235,45.9387343 87.656,46.1376105 87.971,46.7731057 C88.0365,46.8922295 88.05,47.249601 88.05,47.5539724 C88.05,48.8123438 88.01,49.1293343 88.01,50.334201 C88.01,51.1286962 88.325,51.3275724 88.666,51.3275724 C89.0725,51.3275724 89.23,51.08882 89.296,50.8243248 L89.3875,50.8243248 C89.348,51.4996962 88.732,52.4128105 87.8265,52.4128105 Z" id="Fill-90" fill="#B59A2F"></path>
            <path d="M93.96385,47.6601743 C93.19035,47.6601743 93.22935,47.1438029 92.99385,47.1438029 C92.61335,47.1438029 92.20635,47.5011743 92.02285,48.0044219 L92.02285,51.7643933 C92.14085,52.0955171 92.78385,52.161641 93.13785,52.2141362 L93.13785,52.3468886 L89.66235,52.3468886 L89.66235,52.2141362 C90.06885,52.1747648 90.41035,51.9627648 90.41035,51.6851457 L90.41035,47.5274219 C90.41035,47.395679 90.39685,47.3290505 90.27885,47.2498029 C90.12135,47.1569267 89.87185,47.0115552 89.66235,46.918679 L89.66235,46.8394314 L91.93135,45.8859362 L92.00985,45.8859362 L91.98385,47.7394219 L92.00985,47.7394219 C92.19335,47.3154219 92.69185,45.89906 93.81985,45.89906 C94.27885,45.89906 94.63285,46.282679 94.63285,46.7995552 C94.63285,47.3290505 94.26585,47.6601743 93.96385,47.6601743" id="Fill-92" fill="#B59A2F"></path>
            <path d="M97.9775,52.4396133 C96.115,52.4396133 94.9475,50.9566229 94.9475,49.116261 C94.9475,47.434899 96.194,45.8989086 98.056,45.8989086 C99.315,45.8989086 100.4825,46.455661 100.4825,47.5540229 C100.4825,48.0703943 100.102,48.5075181 99.6165,48.5075181 C99.079,48.5075181 98.725,48.1895181 98.6725,47.858899 C98.725,47.7392705 98.83,47.5277752 98.83,47.2360229 C98.83,46.52128 98.5675,46.1109086 97.9905,46.1109086 C97.1515,46.1109086 96.6265,47.3420229 96.6265,48.7195181 C96.6265,50.18888 97.4395,51.2216229 98.5805,51.2216229 C99.6165,51.2216229 100.141,50.8243752 100.574,50.13588 L100.679,50.18888 C100.364,51.2347467 99.525,52.4396133 97.9775,52.4396133" id="Fill-94" fill="#B59A2F"></path>
            <path d="M104.7075,52.346939 L104.7075,52.2015676 C105.1795,52.1748152 105.547,52.01632 105.547,51.7376914 L105.547,48.61372 C105.547,47.6864724 105.2845,46.958101 104.498,46.958101 C103.947,46.958101 103.6325,47.170101 103.475,47.4083486 C103.4355,47.4613486 103.409,47.6203486 103.409,47.7662248 L103.409,51.7376914 C103.409,52.0688152 103.8025,52.1616914 104.1565,52.2141867 L104.1565,52.346939 L100.996,52.346939 L100.996,52.2141867 C101.403,52.1748152 101.7965,52.01632 101.7965,51.6846914 L101.7965,44.5089962 C101.7965,44.3767486 101.783,44.3232438 101.665,44.2308724 C101.521,44.1117486 101.2325,43.9926248 101.0095,43.8603771 L101.0095,43.7806248 L103.3175,42.7347581 L103.4225,42.7347581 L103.3835,47.3154724 L103.409,47.329101 C103.6455,46.8919771 104.406,45.8991105 105.652,45.8991105 C106.806,45.8991105 107.1735,46.7597295 107.1735,47.92472 L107.1735,51.7775676 C107.1735,52.0420629 107.6585,52.1884438 107.9605,52.2278152 L107.9605,52.346939 L104.7075,52.346939 Z" id="Fill-96" fill="#B59A2F"></path>
            <g id="Group-100" transform="translate(0.000000, 0.234714)">
                <mask id="mask-4" fill="white">
                    <use xlink:href="#path-3"></use>
                </mask>
                <g id="Clip-99"></g>
                <polygon id="Fill-98" fill="#FFFFFF" mask="url(#mask-4)" points="33.0625 0.270148571 33.0625 22.70732 7.582 22.70732 7.582 0.270148571 0 0.270148571 0 52.495339 7.582 52.495339 7.582 30.3655676 33.0625 30.3655676 33.0625 52.495339 40.6455 52.495339 40.6455 30.2106057 40.6455 22.5543771 40.6455 0.270148571"></polygon>
            </g>
            <polygon id="Fill-101" fill="#B59A2F" points="0.0205 52.7299524 7.6145 52.7299524 21.6115 30.6011905 14.0165 30.6011905"></polygon>
            <polygon id="Fill-103" fill="#B59A2F" points="40.6494 0.504862857 33.0539 0.504862857 18.8624 22.9420343 26.4569 22.9420343"></polygon>
        </g>
    </g>
</svg>